<svg width="14" height="16" viewBox="0 0 14 16" fill="none" xmlns="http://www.w3.org/2000/svg">
<path d="M9.99368 15.3888C8.99403 15.2439 8.04377 14.8611 7.22268 14.2728C6.27106 13.6101 5.39691 12.8427 4.61668 11.9848C3.63279 10.9815 2.70473 9.92489 1.83668 8.81981C1.141 7.93549 0.604343 6.93695 0.250683 5.86881C0.0247691 5.17399 -0.0344985 4.43577 0.0776787 3.71381C0.235714 2.8805 0.667985 2.12402 1.30568 1.56481C1.56322 1.33444 1.84292 1.13011 2.14068 0.954805C2.318 0.842121 2.52445 0.783872 2.73452 0.787248C2.94459 0.790625 3.14908 0.855477 3.32269 0.973802C4.15459 1.46885 4.79219 2.23349 5.12968 3.14081C5.18751 3.26862 5.21004 3.40958 5.19491 3.54904C5.17979 3.68851 5.12756 3.82137 5.04368 3.93381C4.83468 4.21581 4.61668 4.49081 4.40568 4.77381C4.21968 5.02381 4.02668 5.27381 3.86168 5.53281C3.77669 5.65277 3.73165 5.79643 3.73291 5.94344C3.73416 6.09044 3.78166 6.23332 3.86868 6.35181C4.28568 6.93681 4.68968 7.5398 5.14268 8.0968C5.9632 9.11249 6.87171 10.0538 7.85768 10.9098C8.07768 11.0988 8.31269 11.2658 8.54669 11.4368C8.64649 11.5143 8.76644 11.5616 8.8923 11.5729C9.01816 11.5843 9.14463 11.5592 9.25668 11.5008C9.50767 11.377 9.75202 11.2402 9.98869 11.0908C10.3167 10.8818 10.6387 10.6668 10.9597 10.4598C11.0923 10.3749 11.2457 10.3282 11.4031 10.3251C11.5606 10.3219 11.7158 10.3623 11.8517 10.4418C12.6814 10.8532 13.3579 11.5189 13.7827 12.3418C13.902 12.5475 13.9558 12.7846 13.9371 13.0217C13.9183 13.2587 13.8278 13.4844 13.6777 13.6688C13.3181 14.1944 12.8386 14.6269 12.2789 14.9306C11.7192 15.2344 11.0953 15.4007 10.4587 15.4158C10.3026 15.4135 10.1467 15.4031 9.99168 15.3848L9.99368 15.3888Z" fill="white"/>
</svg>
