<svg width="13" height="13" viewBox="0 0 13 13" fill="none" xmlns="http://www.w3.org/2000/svg">
<path d="M12.75 3.60314C12.7505 3.52088 12.7347 3.43934 12.7036 3.36319C12.6725 3.28705 12.6267 3.21779 12.5688 3.15939L9.91876 0.509385C9.86036 0.45146 9.7911 0.405631 9.71495 0.374528C9.6388 0.343426 9.55727 0.32766 9.47501 0.328135C9.39276 0.32766 9.31122 0.343426 9.23507 0.374528C9.15892 0.405631 9.08966 0.45146 9.03126 0.509385L7.26251 2.27814L0.43126 9.10939C0.373335 9.16779 0.327506 9.23705 0.296403 9.31319C0.265301 9.38934 0.249535 9.47088 0.25001 9.55314V12.2031C0.25001 12.3689 0.315858 12.5279 0.433069 12.6451C0.550279 12.7623 0.70925 12.8281 0.87501 12.8281H3.52501C3.61247 12.8329 3.69994 12.8192 3.78177 12.788C3.8636 12.7568 3.93795 12.7087 4.00001 12.6469L10.7938 5.81564L12.5688 4.07814C12.6258 4.01756 12.6723 3.94784 12.7063 3.87189C12.7123 3.82207 12.7123 3.7717 12.7063 3.72189C12.7092 3.69279 12.7092 3.66348 12.7063 3.63439L12.75 3.60314ZM3.26876 11.5781H1.50001V9.80939L7.70626 3.60314L9.47501 5.37189L3.26876 11.5781ZM10.3563 4.49064L8.58751 2.72189L9.47501 1.84064L11.2375 3.60314L10.3563 4.49064Z" fill="black"/>
</svg>
