<svg width="20" height="20" viewBox="0 0 20 20" fill="none" xmlns="http://www.w3.org/2000/svg">
<path d="M1.76103 1.56585C0.232134 3.15392 0.545046 4.84089 0.545046 9.96584C0.545046 14.2218 -0.197513 18.4882 3.68876 19.4926C4.90231 19.8047 15.6548 19.8048 16.8668 19.491C18.4848 19.0735 19.8013 17.7611 19.9813 15.4726C20.0064 15.1532 20.0064 4.78414 19.9805 4.45826C19.7892 2.02062 18.2886 0.615759 16.3115 0.331219C15.8583 0.265557 15.7675 0.246101 13.4426 0.242048C5.19577 0.246101 3.38801 -0.121126 1.76103 1.56585Z" fill="url(#paint0_linear_243_11390)"/>
<path d="M10.2714 2.78623C7.32792 2.78623 4.53279 2.52439 3.46516 5.2644C3.02416 6.39607 3.08821 7.86579 3.08821 9.97025C3.08821 11.8169 3.02903 13.5525 3.46516 14.6753C4.53036 17.4169 7.34819 17.1543 10.2698 17.1543C13.0884 17.1543 15.9946 17.4477 17.0752 14.6753C17.517 13.5323 17.4522 12.0844 17.4522 9.97025C17.4522 7.16376 17.607 5.35195 16.2459 3.99167C14.8678 2.61356 13.0041 2.78623 10.2682 2.78623H10.2714ZM9.62775 4.08084C15.7676 4.07112 16.5491 3.38855 16.1178 12.8708C15.9646 16.2244 13.4111 15.8564 10.2722 15.8564C4.549 15.8564 4.38444 15.6927 4.38444 9.967C4.38444 4.17488 4.83841 4.08409 9.62775 4.07922V4.08084ZM14.1058 5.27332C13.6299 5.27332 13.2441 5.65919 13.2441 6.13504C13.2441 6.6109 13.6299 6.99677 14.1058 6.99677C14.5817 6.99677 14.9675 6.6109 14.9675 6.13504C14.9675 5.65919 14.5817 5.27332 14.1058 5.27332ZM10.2714 6.28096C8.23424 6.28096 6.58293 7.93307 6.58293 9.97025C6.58293 12.0074 8.23424 13.6587 10.2714 13.6587C12.3086 13.6587 13.9591 12.0074 13.9591 9.97025C13.9591 7.93307 12.3086 6.28096 10.2714 6.28096ZM10.2714 7.57557C13.437 7.57557 13.4411 12.3649 10.2714 12.3649C7.10662 12.3649 7.10175 7.57557 10.2714 7.57557Z" fill="white"/>
<defs>
<linearGradient id="paint0_linear_243_11390" x1="1.79833" y1="18.4551" x2="19.8803" y2="2.80532" gradientUnits="userSpaceOnUse">
<stop stop-color="#FFDD55"/>
<stop offset="0.5" stop-color="#FF543E"/>
<stop offset="1" stop-color="#C837AB"/>
</linearGradient>
</defs>
</svg>
