<svg width="21" height="20" viewBox="0 0 21 20" fill="none" xmlns="http://www.w3.org/2000/svg">
<path d="M0.500977 9.99865C0.500977 15.5215 4.97786 19.998 10.5001 19.998C16.0226 19.998 20.4995 15.5215 20.4995 9.99865C20.4995 4.47653 16.0226 -0.000263214 10.5001 -0.000263214C4.97786 -0.000263214 0.500977 4.47653 0.500977 9.99865Z" fill="#25B7D3"/>
<path d="M16.4004 13.8986L14.4006 15.8984C13.9682 16.3308 13.2672 16.3307 12.8349 15.8984L9.74614 12.8097C9.31381 12.3773 9.31377 11.6763 9.7461 11.2439L11.7459 9.24408C12.1783 8.81171 12.8793 8.81175 13.3116 9.24417L16.4004 12.3329C16.8327 12.7652 16.8327 13.4662 16.4004 13.8986ZM13.1004 10.5082C12.8469 10.2548 12.4359 10.2547 12.1825 10.5082L11.0102 11.6805C10.7568 11.9339 10.7568 12.3448 11.0102 12.5983L13.0462 14.6343C13.2996 14.8877 13.7105 14.8877 13.964 14.6343L15.1363 13.462C15.3897 13.2085 15.3897 12.7976 15.1363 12.5442L13.1004 10.5082Z" fill="white"/>
<path d="M11.2539 8.75213L9.25412 10.7519C8.82175 11.1843 8.12074 11.1842 7.68841 10.7519L4.59965 7.66312C4.16732 7.23079 4.16728 6.52977 4.59965 6.09744L6.59948 4.09761C7.03181 3.66524 7.73286 3.66532 8.16515 4.09761L11.2539 7.18645C11.6862 7.61874 11.6863 8.31975 11.2539 8.75213ZM7.95383 5.36176C7.70038 5.10831 7.28949 5.10823 7.036 5.36172L5.86372 6.534C5.61023 6.78745 5.61027 7.19838 5.86372 7.45183L7.89969 9.48781C8.1531 9.74121 8.56403 9.74125 8.81752 9.48781L9.9898 8.31552C10.2433 8.06203 10.2432 7.6511 9.9898 7.3977L7.95383 5.36176Z" fill="white"/>
<path d="M12.8718 12.2719L12.7743 12.3694C12.4622 12.6815 11.9544 12.6815 11.6423 12.3694L8.12955 8.85666C7.81749 8.54461 7.81749 8.03682 8.12955 7.72477L8.22709 7.62719C8.53915 7.31517 9.04693 7.31517 9.35903 7.62719L12.8718 11.14C13.1839 11.452 13.1839 11.9598 12.8718 12.2719Z" fill="#48A1AF"/>
<path d="M9.18347 7.80281C8.96791 7.58725 8.61837 7.58721 8.40281 7.80277L8.30523 7.90035C8.08966 8.11591 8.08966 8.46545 8.30523 8.68097L11.818 12.1938C12.0336 12.4094 12.3831 12.4094 12.5987 12.1937L12.6963 12.0962C12.9118 11.8806 12.9119 11.5311 12.6963 11.3156L9.18347 7.80281Z" fill="white"/>
</svg>
