<svg width="17" height="16" viewBox="0 0 17 16" fill="none" xmlns="http://www.w3.org/2000/svg">
<path d="M16.434 2.20858L11.434 0.541916H11.3757C11.3369 0.538017 11.2978 0.538017 11.259 0.541916H11.0673H10.959H10.9007L6.16732 2.16692L1.43399 0.541916C1.30867 0.500592 1.17532 0.48962 1.04493 0.509903C0.914543 0.530186 0.790834 0.581144 0.683987 0.658582C0.576286 0.735263 0.488375 0.836468 0.427516 0.953838C0.366658 1.07121 0.334599 1.20137 0.333987 1.33358V13.0002C0.333536 13.175 0.388003 13.3454 0.489689 13.4874C0.591375 13.6295 0.735136 13.736 0.900654 13.7919L5.90065 15.4586C6.06853 15.5133 6.24945 15.5133 6.41732 15.4586V15.4586L11.1673 13.8752L15.9007 15.5002C15.9891 15.5123 16.0788 15.5123 16.1673 15.5002C16.3416 15.5027 16.5116 15.447 16.6507 15.3419C16.7584 15.2652 16.8463 15.164 16.9071 15.0467C16.968 14.9293 17 14.7991 17.0007 14.6669V3.00025C17.0011 2.82555 16.9466 2.65512 16.845 2.51306C16.7433 2.371 16.5995 2.26449 16.434 2.20858V2.20858ZM5.33399 13.5086L2.00065 12.4002V2.49192L5.33399 3.60025V13.5086ZM10.334 12.4002L7.00065 13.5086V3.60025L10.334 2.49192V12.4002ZM15.334 13.5086L12.0007 12.4002V2.49192L15.334 3.60025V13.5086Z" fill="white"/>
</svg>
