<svg width="24" height="16" viewBox="0 0 24 16" fill="none" xmlns="http://www.w3.org/2000/svg">
<path d="M17.3037 0.696763C17.4325 0.819392 17.5 0.980362 17.5 1.14275C17.5 1.30513 17.4325 1.4661 17.3037 1.58873C17.1742 1.71214 16.9934 1.78549 16.8002 1.78549H1.19984C1.00657 1.78549 0.82584 1.71214 0.696259 1.58873C0.567504 1.4661 0.5 1.30513 0.5 1.14275C0.5 0.980361 0.567504 0.819391 0.696259 0.696763C0.82584 0.573347 1.00657 0.5 1.19984 0.5H16.8002C16.9934 0.5 17.1742 0.573346 17.3037 0.696763ZM1.19984 7.35725H22.8002C22.9934 7.35725 23.1742 7.4306 23.3037 7.55401C23.4325 7.67664 23.5 7.83761 23.5 8C23.5 8.16238 23.4325 8.32335 23.3037 8.44598C23.1742 8.5694 22.9934 8.64274 22.8002 8.64274H1.19984C1.00657 8.64274 0.82584 8.5694 0.696259 8.44598C0.567504 8.32335 0.5 8.16238 0.5 8C0.5 7.83761 0.567504 7.67664 0.696259 7.55401C0.82584 7.4306 1.00657 7.35725 1.19984 7.35725ZM1.19984 14.2145H12C12.1933 14.2145 12.374 14.2879 12.5036 14.4113C12.6323 14.5339 12.6998 14.6949 12.6998 14.8572C12.6998 15.0196 12.6323 15.1806 12.5036 15.3032C12.374 15.4267 12.1933 15.5 12 15.5H1.19984C1.00658 15.5 0.825844 15.4267 0.696259 15.3032C0.567505 15.1806 0.5 15.0196 0.5 14.8572C0.5 14.6949 0.567502 14.5339 0.696259 14.4113C0.825845 14.2879 1.00658 14.2145 1.19984 14.2145Z" fill="white" stroke="#161616"/>
</svg>
