<svg width="22" height="23" viewBox="0 0 22 23" fill="none" xmlns="http://www.w3.org/2000/svg">
<path d="M10.9998 0.00213932C5.05499 -0.115078 0.135736 4.59922 0 10.5436C0.0155115 13.5696 1.35539 16.437 3.6666 18.3902V21.5435C3.6666 21.7966 3.87182 22.0018 4.12494 22.0018C4.21084 22.0018 4.29501 21.9777 4.36784 21.9322L6.92256 20.3363C8.22415 20.8341 9.6063 21.088 10.9998 21.0852C16.9447 21.2024 21.864 16.4881 21.9997 10.5437C21.864 4.59922 16.9447 -0.115078 10.9998 0.00213932Z" fill="#2196F3"/>
<path d="M18.2412 7.51826C18.1048 7.33547 17.8548 7.28077 17.6545 7.38991L12.8879 9.98862L9.92258 7.44581C9.74074 7.28992 9.46952 7.30028 9.30018 7.46966L3.80026 12.9696C3.62181 13.1491 3.62267 13.4393 3.80224 13.6178C3.94579 13.7605 4.16592 13.7921 4.34385 13.6956L9.11044 11.0969L12.0785 13.6406C12.2604 13.7965 12.5316 13.7861 12.7009 13.6167L18.2009 8.1168C18.3611 7.95503 18.3783 7.7001 18.2412 7.51826Z" fill="#FAFAFA"/>
</svg>
