<svg width="15" height="15" viewBox="0 0 15 15" fill="none" xmlns="http://www.w3.org/2000/svg">
<path d="M12.5935 0.787109H1.80354C1.29318 0.824573 0.818125 1.06155 0.481228 1.44673C0.144332 1.83192 -0.0272885 2.33431 0.00353676 2.84511V14.3561C0.00343055 14.3909 0.0138447 14.425 0.0334135 14.4538C0.0529822 14.4826 0.0807839 14.5049 0.113202 14.5176C0.145619 14.5304 0.181141 14.533 0.2151 14.5253C0.249059 14.5175 0.279886 14.4997 0.30354 14.4741L2.97253 11.6321H12.5275C13.0574 11.5778 13.5465 11.3231 13.8949 10.9201C14.2432 10.5171 14.4245 9.99627 14.4015 9.4641V2.8461C14.4324 2.3353 14.2607 1.83292 13.9238 1.44774C13.5869 1.06255 13.1119 0.825565 12.6015 0.788101L12.5935 0.787109ZM2.07054 8.5771C2.0708 8.47322 2.11218 8.37366 2.18564 8.3002C2.25909 8.22674 2.35865 8.18537 2.46254 8.1851H6.44754C6.5515 8.1851 6.6512 8.2264 6.72471 8.29991C6.79823 8.37343 6.83954 8.47314 6.83954 8.5771C6.83954 8.68107 6.79823 8.78078 6.72471 8.85429C6.6512 8.92781 6.5515 8.9691 6.44754 8.9691H2.46454C2.41293 8.96923 2.3618 8.9592 2.31407 8.93958C2.26634 8.91995 2.22294 8.89111 2.18635 8.85471C2.14977 8.81831 2.1207 8.77505 2.10083 8.72742C2.08096 8.67979 2.07067 8.62871 2.07054 8.5771ZM2.07054 6.20911C2.0708 6.10522 2.11218 6.00566 2.18564 5.93221C2.25909 5.85875 2.35865 5.81737 2.46254 5.81711H11.9355C12.0395 5.81711 12.1392 5.8584 12.2127 5.93192C12.2862 6.00543 12.3275 6.10514 12.3275 6.20911C12.3275 6.31307 12.2862 6.41277 12.2127 6.48628C12.1392 6.5598 12.0395 6.6011 11.9355 6.6011H2.46254C2.35865 6.60084 2.25909 6.55945 2.18564 6.48599C2.11218 6.41254 2.0708 6.31299 2.07054 6.20911ZM11.9345 4.23311H2.46153C2.35756 4.23311 2.25787 4.1918 2.18435 4.11829C2.11084 4.04477 2.06953 3.94508 2.06953 3.84111C2.06953 3.73715 2.11084 3.63743 2.18435 3.56392C2.25787 3.4904 2.35756 3.4491 2.46153 3.4491H11.9345C12.0385 3.4491 12.1382 3.4904 12.2117 3.56392C12.2852 3.63743 12.3265 3.73715 12.3265 3.84111C12.3265 3.94508 12.2852 4.04477 12.2117 4.11829C12.1382 4.1918 12.0385 4.23311 11.9345 4.23311Z" fill="white"/>
</svg>
