<svg width="26" height="24" viewBox="0 0 26 24" fill="none" xmlns="http://www.w3.org/2000/svg">
<mask id="path-1-inside-1_243_10248" fill="white">
<path d="M25.5 9.62541C25.625 9.00041 25.125 8.25041 24.5 8.25041L17.375 7.25041L14.125 0.750411C14 0.500411 13.875 0.375411 13.625 0.250411C13 -0.124589 12.25 0.125411 11.875 0.750411L8.75 7.25041L1.625 8.25041C1.25 8.25041 1 8.37541 0.875 8.62541C0.375 9.12541 0.375 9.87541 0.875 10.3754L6 15.3754L4.75 22.5004C4.75 22.7504 4.75 23.0004 4.875 23.2504C5.25 23.8754 6 24.1254 6.625 23.7504L13 20.3754L19.375 23.7504C19.5 23.8754 19.75 23.8754 20 23.8754C20.125 23.8754 20.125 23.8754 20.25 23.8754C20.875 23.7504 21.375 23.1254 21.25 22.3754L20 15.2504L25.125 10.2504C25.375 10.1254 25.5 9.87541 25.5 9.62541Z"/>
</mask>
<path d="M25.5 9.62541C25.625 9.00041 25.125 8.25041 24.5 8.25041L17.375 7.25041L14.125 0.750411C14 0.500411 13.875 0.375411 13.625 0.250411C13 -0.124589 12.25 0.125411 11.875 0.750411L8.75 7.25041L1.625 8.25041C1.25 8.25041 1 8.37541 0.875 8.62541C0.375 9.12541 0.375 9.87541 0.875 10.3754L6 15.3754L4.75 22.5004C4.75 22.7504 4.75 23.0004 4.875 23.2504C5.25 23.8754 6 24.1254 6.625 23.7504L13 20.3754L19.375 23.7504C19.5 23.8754 19.75 23.8754 20 23.8754C20.125 23.8754 20.125 23.8754 20.25 23.8754C20.875 23.7504 21.375 23.1254 21.25 22.3754L20 15.2504L25.125 10.2504C25.375 10.1254 25.5 9.87541 25.5 9.62541Z" fill="url(#paint0_linear_243_10248)"/>
<path d="M25.5 9.62541L23.5388 9.23318L23.5 9.42737V9.62541H25.5ZM24.5 8.25041L24.222 10.231L24.3603 10.2504H24.5V8.25041ZM17.375 7.25041L15.5861 8.14484L16.0562 9.08492L17.097 9.231L17.375 7.25041ZM14.125 0.750411L12.3361 1.64484L12.3361 1.64484L14.125 0.750411ZM13.625 0.250411L12.596 1.9654L12.6619 2.00492L12.7306 2.03927L13.625 0.250411ZM11.875 0.750411L10.16 -0.27858L10.1125 -0.199399L10.0725 -0.116178L11.875 0.750411ZM8.75 7.25041L9.02798 9.231L10.0885 9.08216L10.5525 8.117L8.75 7.25041ZM1.625 8.25041V10.2504H1.76467L1.90298 10.231L1.625 8.25041ZM0.875 8.62541L2.28921 10.0396L2.51871 9.81013L2.66385 9.51984L0.875 8.62541ZM0.875 10.3754L-0.539214 11.7896L-0.530484 11.7984L-0.521648 11.807L0.875 10.3754ZM6 15.3754L7.96991 15.721L8.15235 14.6811L7.39665 13.9438L6 15.3754ZM4.75 22.5004L2.78009 22.1548L2.75 22.3263V22.5004H4.75ZM4.875 23.2504L3.08615 24.1448L3.1205 24.2135L3.16001 24.2794L4.875 23.2504ZM6.625 23.7504L5.68922 21.9828L5.64191 22.0079L5.59601 22.0354L6.625 23.7504ZM13 20.3754L13.9358 18.6078L13 18.1124L12.0642 18.6078L13 20.3754ZM19.375 23.7504L20.7892 22.3362L20.5766 22.1235L20.3108 21.9828L19.375 23.7504ZM20.25 23.8754V25.8754H20.448L20.6422 25.8366L20.25 23.8754ZM21.25 22.3754L23.2228 22.0466L23.2214 22.0382L23.2199 22.0298L21.25 22.3754ZM20 15.2504L18.6034 13.8188L17.8476 14.5561L18.0301 15.596L20 15.2504ZM25.125 10.2504L24.2306 8.46156L23.9516 8.60104L23.7284 8.81885L25.125 10.2504ZM27.4612 10.0176C27.6496 9.07541 27.3611 8.18189 26.9152 7.55017C26.4715 6.92168 25.6439 6.25041 24.5 6.25041V10.2504C23.9811 10.2504 23.716 9.95415 23.6473 9.8569C23.5764 9.75643 23.4754 9.55041 23.5388 9.23318L27.4612 10.0176ZM24.778 6.26982L17.653 5.26982L17.097 9.231L24.222 10.231L24.778 6.26982ZM19.1639 6.35598L15.9139 -0.144016L12.3361 1.64484L15.5861 8.14484L19.1639 6.35598ZM15.9139 -0.144016C15.791 -0.389646 15.614 -0.682716 15.3361 -0.960675C15.0581 -1.23863 14.7651 -1.41563 14.5194 -1.53844L12.7306 2.03927C12.7349 2.04145 12.6294 1.98946 12.5077 1.86775C12.3859 1.74604 12.334 1.64047 12.3361 1.64484L15.9139 -0.144016ZM14.654 -1.46457C12.9351 -2.49592 11.0111 -1.697 10.16 -0.27858L13.59 1.7794C13.5364 1.86878 13.4234 1.98334 13.2309 2.04106C13.0213 2.10396 12.7809 2.07634 12.596 1.9654L14.654 -1.46457ZM10.0725 -0.116178L6.9475 6.38382L10.5525 8.117L13.6775 1.617L10.0725 -0.116178ZM8.47202 5.26982L1.34702 6.26982L1.90298 10.231L9.02798 9.231L8.47202 5.26982ZM1.625 6.25041C0.794474 6.25041 -0.333335 6.56995 -0.913854 7.73098L2.66385 9.51984C2.53283 9.78189 2.31273 10.002 2.05068 10.133C1.81976 10.2485 1.6468 10.2504 1.625 10.2504V6.25041ZM-0.539214 7.2112C-1.82026 8.49225 -1.82026 10.5086 -0.539214 11.7896L2.28921 8.9612C2.40232 9.0743 2.5 9.26579 2.5 9.50041C2.5 9.73504 2.40232 9.92652 2.28921 10.0396L-0.539214 7.2112ZM-0.521648 11.807L4.60335 16.807L7.39665 13.9438L2.27165 8.94385L-0.521648 11.807ZM4.03009 15.0298L2.78009 22.1548L6.71991 22.846L7.96991 15.721L4.03009 15.0298ZM2.75 22.5004C2.75 22.7 2.7208 23.4142 3.08615 24.1448L6.66385 22.356C6.69303 22.4143 6.71383 22.4709 6.72804 22.5214C6.74193 22.5708 6.7478 22.6083 6.75018 22.6273C6.75238 22.6449 6.75168 22.6478 6.75098 22.6254C6.75016 22.5994 6.75 22.5681 6.75 22.5004H2.75ZM3.16001 24.2794C4.01107 25.6978 5.93508 26.4967 7.65399 25.4654L5.59601 22.0354C5.78091 21.9245 6.0213 21.8969 6.23095 21.9598C6.42337 22.0175 6.53636 22.132 6.58999 22.2214L3.16001 24.2794ZM7.56078 25.518L13.9358 22.143L12.0642 18.6078L5.68922 21.9828L7.56078 25.518ZM12.0642 22.143L18.4392 25.518L20.3108 21.9828L13.9358 18.6078L12.0642 22.143ZM17.9608 25.1646C18.4847 25.6886 19.1062 25.8037 19.3578 25.8397C19.6354 25.8793 19.912 25.8754 20 25.8754V21.8754C19.9314 21.8754 19.9016 21.8752 19.8789 21.8745C19.8573 21.8738 19.8784 21.8734 19.9235 21.8799C19.9658 21.8859 20.076 21.9042 20.219 21.9602C20.3666 22.018 20.5818 22.1287 20.7892 22.3362L17.9608 25.1646ZM20 25.8754C20.0002 25.8754 20.0005 25.8754 20.0007 25.8754C20.001 25.8754 20.0012 25.8754 20.0015 25.8754C20.0017 25.8754 20.0019 25.8754 20.0022 25.8754C20.0024 25.8754 20.0027 25.8754 20.0029 25.8754C20.0031 25.8754 20.0034 25.8754 20.0036 25.8754C20.0039 25.8754 20.0041 25.8754 20.0043 25.8754C20.0046 25.8754 20.0048 25.8754 20.0051 25.8754C20.0053 25.8754 20.0055 25.8754 20.0058 25.8754C20.006 25.8754 20.0062 25.8754 20.0065 25.8754C20.0067 25.8754 20.0069 25.8754 20.0072 25.8754C20.0074 25.8754 20.0077 25.8754 20.0079 25.8754C20.0081 25.8754 20.0084 25.8754 20.0086 25.8754C20.0088 25.8754 20.0091 25.8754 20.0093 25.8754C20.0095 25.8754 20.0097 25.8754 20.01 25.8754C20.0102 25.8754 20.0104 25.8754 20.0107 25.8754C20.0109 25.8754 20.0111 25.8754 20.0114 25.8754C20.0116 25.8754 20.0118 25.8754 20.012 25.8754C20.0123 25.8754 20.0125 25.8754 20.0127 25.8754C20.013 25.8754 20.0132 25.8754 20.0134 25.8754C20.0136 25.8754 20.0139 25.8754 20.0141 25.8754C20.0143 25.8754 20.0145 25.8754 20.0148 25.8754C20.015 25.8754 20.0152 25.8754 20.0154 25.8754C20.0157 25.8754 20.0159 25.8754 20.0161 25.8754C20.0163 25.8754 20.0166 25.8754 20.0168 25.8754C20.017 25.8754 20.0172 25.8754 20.0174 25.8754C20.0177 25.8754 20.0179 25.8754 20.0181 25.8754C20.0183 25.8754 20.0185 25.8754 20.0188 25.8754C20.019 25.8754 20.0192 25.8754 20.0194 25.8754C20.0196 25.8754 20.0199 25.8754 20.0201 25.8754C20.0203 25.8754 20.0205 25.8754 20.0207 25.8754C20.021 25.8754 20.0212 25.8754 20.0214 25.8754C20.0216 25.8754 20.0218 25.8754 20.022 25.8754C20.0222 25.8754 20.0225 25.8754 20.0227 25.8754C20.0229 25.8754 20.0231 25.8754 20.0233 25.8754C20.0235 25.8754 20.0237 25.8754 20.024 25.8754C20.0242 25.8754 20.0244 25.8754 20.0246 25.8754C20.0248 25.8754 20.025 25.8754 20.0252 25.8754C20.0254 25.8754 20.0257 25.8754 20.0259 25.8754C20.0261 25.8754 20.0263 25.8754 20.0265 25.8754C20.0267 25.8754 20.0269 25.8754 20.0271 25.8754C20.0273 25.8754 20.0275 25.8754 20.0278 25.8754C20.028 25.8754 20.0282 25.8754 20.0284 25.8754C20.0286 25.8754 20.0288 25.8754 20.029 25.8754C20.0292 25.8754 20.0294 25.8754 20.0296 25.8754C20.0298 25.8754 20.03 25.8754 20.0302 25.8754C20.0304 25.8754 20.0306 25.8754 20.0308 25.8754C20.031 25.8754 20.0313 25.8754 20.0315 25.8754C20.0317 25.8754 20.0319 25.8754 20.0321 25.8754C20.0323 25.8754 20.0325 25.8754 20.0327 25.8754C20.0329 25.8754 20.0331 25.8754 20.0333 25.8754C20.0335 25.8754 20.0337 25.8754 20.0339 25.8754C20.0341 25.8754 20.0343 25.8754 20.0345 25.8754C20.0347 25.8754 20.0349 25.8754 20.0351 25.8754C20.0353 25.8754 20.0355 25.8754 20.0357 25.8754C20.0359 25.8754 20.0361 25.8754 20.0363 25.8754C20.0365 25.8754 20.0367 25.8754 20.0369 25.8754C20.0371 25.8754 20.0372 25.8754 20.0374 25.8754C20.0376 25.8754 20.0378 25.8754 20.038 25.8754C20.0382 25.8754 20.0384 25.8754 20.0386 25.8754C20.0388 25.8754 20.039 25.8754 20.0392 25.8754C20.0394 25.8754 20.0396 25.8754 20.0398 25.8754C20.04 25.8754 20.0402 25.8754 20.0404 25.8754C20.0405 25.8754 20.0407 25.8754 20.0409 25.8754C20.0411 25.8754 20.0413 25.8754 20.0415 25.8754C20.0417 25.8754 20.0419 25.8754 20.0421 25.8754C20.0423 25.8754 20.0425 25.8754 20.0426 25.8754C20.0428 25.8754 20.043 25.8754 20.0432 25.8754C20.0434 25.8754 20.0436 25.8754 20.0438 25.8754C20.044 25.8754 20.0442 25.8754 20.0443 25.8754C20.0445 25.8754 20.0447 25.8754 20.0449 25.8754C20.0451 25.8754 20.0453 25.8754 20.0455 25.8754C20.0456 25.8754 20.0458 25.8754 20.046 25.8754C20.0462 25.8754 20.0464 25.8754 20.0466 25.8754C20.0468 25.8754 20.0469 25.8754 20.0471 25.8754C20.0473 25.8754 20.0475 25.8754 20.0477 25.8754C20.0479 25.8754 20.048 25.8754 20.0482 25.8754C20.0484 25.8754 20.0486 25.8754 20.0488 25.8754C20.0489 25.8754 20.0491 25.8754 20.0493 25.8754C20.0495 25.8754 20.0497 25.8754 20.0499 25.8754C20.05 25.8754 20.0502 25.8754 20.0504 25.8754C20.0506 25.8754 20.0508 25.8754 20.0509 25.8754C20.0511 25.8754 20.0513 25.8754 20.0515 25.8754C20.0516 25.8754 20.0518 25.8754 20.052 25.8754C20.0522 25.8754 20.0524 25.8754 20.0525 25.8754C20.0527 25.8754 20.0529 25.8754 20.0531 25.8754C20.0532 25.8754 20.0534 25.8754 20.0536 25.8754C20.0538 25.8754 20.0539 25.8754 20.0541 25.8754C20.0543 25.8754 20.0545 25.8754 20.0546 25.8754C20.0548 25.8754 20.055 25.8754 20.0552 25.8754C20.0553 25.8754 20.0555 25.8754 20.0557 25.8754C20.0559 25.8754 20.056 25.8754 20.0562 25.8754C20.0564 25.8754 20.0566 25.8754 20.0567 25.8754C20.0569 25.8754 20.0571 25.8754 20.0572 25.8754C20.0574 25.8754 20.0576 25.8754 20.0578 25.8754C20.0579 25.8754 20.0581 25.8754 20.0583 25.8754C20.0584 25.8754 20.0586 25.8754 20.0588 25.8754C20.0589 25.8754 20.0591 25.8754 20.0593 25.8754C20.0595 25.8754 20.0596 25.8754 20.0598 25.8754C20.06 25.8754 20.0601 25.8754 20.0603 25.8754C20.0605 25.8754 20.0606 25.8754 20.0608 25.8754C20.061 25.8754 20.0611 25.8754 20.0613 25.8754C20.0615 25.8754 20.0616 25.8754 20.0618 25.8754C20.062 25.8754 20.0621 25.8754 20.0623 25.8754C20.0625 25.8754 20.0626 25.8754 20.0628 25.8754C20.063 25.8754 20.0631 25.8754 20.0633 25.8754C20.0635 25.8754 20.0636 25.8754 20.0638 25.8754C20.0639 25.8754 20.0641 25.8754 20.0643 25.8754C20.0644 25.8754 20.0646 25.8754 20.0648 25.8754C20.0649 25.8754 20.0651 25.8754 20.0653 25.8754C20.0654 25.8754 20.0656 25.8754 20.0657 25.8754C20.0659 25.8754 20.0661 25.8754 20.0662 25.8754C20.0664 25.8754 20.0665 25.8754 20.0667 25.8754C20.0669 25.8754 20.067 25.8754 20.0672 25.8754C20.0673 25.8754 20.0675 25.8754 20.0677 25.8754C20.0678 25.8754 20.068 25.8754 20.0681 25.8754C20.0683 25.8754 20.0685 25.8754 20.0686 25.8754C20.0688 25.8754 20.0689 25.8754 20.0691 25.8754C20.0693 25.8754 20.0694 25.8754 20.0696 25.8754C20.0697 25.8754 20.0699 25.8754 20.07 25.8754C20.0702 25.8754 20.0704 25.8754 20.0705 25.8754C20.0707 25.8754 20.0708 25.8754 20.071 25.8754C20.0711 25.8754 20.0713 25.8754 20.0714 25.8754C20.0716 25.8754 20.0718 25.8754 20.0719 25.8754C20.0721 25.8754 20.0722 25.8754 20.0724 25.8754C20.0725 25.8754 20.0727 25.8754 20.0728 25.8754C20.073 25.8754 20.0731 25.8754 20.0733 25.8754C20.0735 25.8754 20.0736 25.8754 20.0738 25.8754C20.0739 25.8754 20.0741 25.8754 20.0742 25.8754C20.0744 25.8754 20.0745 25.8754 20.0747 25.8754C20.0748 25.8754 20.075 25.8754 20.0751 25.8754C20.0753 25.8754 20.0754 25.8754 20.0756 25.8754C20.0757 25.8754 20.0759 25.8754 20.076 25.8754C20.0762 25.8754 20.0763 25.8754 20.0765 25.8754C20.0766 25.8754 20.0768 25.8754 20.0769 25.8754C20.0771 25.8754 20.0772 25.8754 20.0774 25.8754C20.0775 25.8754 20.0777 25.8754 20.0778 25.8754C20.078 25.8754 20.0781 25.8754 20.0783 25.8754C20.0784 25.8754 20.0786 25.8754 20.0787 25.8754C20.0789 25.8754 20.079 25.8754 20.0792 25.8754C20.0793 25.8754 20.0795 25.8754 20.0796 25.8754C20.0798 25.8754 20.0799 25.8754 20.0801 25.8754C20.0802 25.8754 20.0803 25.8754 20.0805 25.8754C20.0806 25.8754 20.0808 25.8754 20.0809 25.8754C20.0811 25.8754 20.0812 25.8754 20.0814 25.8754C20.0815 25.8754 20.0817 25.8754 20.0818 25.8754C20.0819 25.8754 20.0821 25.8754 20.0822 25.8754C20.0824 25.8754 20.0825 25.8754 20.0827 25.8754C20.0828 25.8754 20.083 25.8754 20.0831 25.8754C20.0832 25.8754 20.0834 25.8754 20.0835 25.8754C20.0837 25.8754 20.0838 25.8754 20.084 25.8754C20.0841 25.8754 20.0842 25.8754 20.0844 25.8754C20.0845 25.8754 20.0847 25.8754 20.0848 25.8754C20.085 25.8754 20.0851 25.8754 20.0852 25.8754C20.0854 25.8754 20.0855 25.8754 20.0857 25.8754C20.0858 25.8754 20.086 25.8754 20.0861 25.8754C20.0862 25.8754 20.0864 25.8754 20.0865 25.8754C20.0867 25.8754 20.0868 25.8754 20.0869 25.8754C20.0871 25.8754 20.0872 25.8754 20.0874 25.8754C20.0875 25.8754 20.0876 25.8754 20.0878 25.8754C20.0879 25.8754 20.0881 25.8754 20.0882 25.8754C20.0883 25.8754 20.0885 25.8754 20.0886 25.8754C20.0888 25.8754 20.0889 25.8754 20.089 25.8754C20.0892 25.8754 20.0893 25.8754 20.0894 25.8754C20.0896 25.8754 20.0897 25.8754 20.0899 25.8754C20.09 25.8754 20.0901 25.8754 20.0903 25.8754C20.0904 25.8754 20.0905 25.8754 20.0907 25.8754C20.0908 25.8754 20.091 25.8754 20.0911 25.8754C20.0912 25.8754 20.0914 25.8754 20.0915 25.8754C20.0916 25.8754 20.0918 25.8754 20.0919 25.8754C20.092 25.8754 20.0922 25.8754 20.0923 25.8754C20.0925 25.8754 20.0926 25.8754 20.0927 25.8754C20.0929 25.8754 20.093 25.8754 20.0931 25.8754C20.0933 25.8754 20.0934 25.8754 20.0935 25.8754C20.0937 25.8754 20.0938 25.8754 20.0939 25.8754C20.0941 25.8754 20.0942 25.8754 20.0943 25.8754C20.0945 25.8754 20.0946 25.8754 20.0947 25.8754C20.0949 25.8754 20.095 25.8754 20.0952 25.8754C20.0953 25.8754 20.0954 25.8754 20.0956 25.8754C20.0957 25.8754 20.0958 25.8754 20.096 25.8754C20.0961 25.8754 20.0962 25.8754 20.0963 25.8754C20.0965 25.8754 20.0966 25.8754 20.0967 25.8754C20.0969 25.8754 20.097 25.8754 20.0971 25.8754C20.0973 25.8754 20.0974 25.8754 20.0975 25.8754C20.0977 25.8754 20.0978 25.8754 20.0979 25.8754C20.0981 25.8754 20.0982 25.8754 20.0983 25.8754C20.0985 25.8754 20.0986 25.8754 20.0987 25.8754C20.0989 25.8754 20.099 25.8754 20.0991 25.8754C20.0992 25.8754 20.0994 25.8754 20.0995 25.8754C20.0996 25.8754 20.0998 25.8754 20.0999 25.8754C20.1 25.8754 20.1002 25.8754 20.1003 25.8754C20.1004 25.8754 20.1006 25.8754 20.1007 25.8754C20.1008 25.8754 20.1009 25.8754 20.1011 25.8754C20.1012 25.8754 20.1013 25.8754 20.1015 25.8754C20.1016 25.8754 20.1017 25.8754 20.1019 25.8754C20.102 25.8754 20.1021 25.8754 20.1022 25.8754C20.1024 25.8754 20.1025 25.8754 20.1026 25.8754C20.1028 25.8754 20.1029 25.8754 20.103 25.8754C20.1031 25.8754 20.1033 25.8754 20.1034 25.8754C20.1035 25.8754 20.1037 25.8754 20.1038 25.8754C20.1039 25.8754 20.104 25.8754 20.1042 25.8754C20.1043 25.8754 20.1044 25.8754 20.1045 25.8754C20.1047 25.8754 20.1048 25.8754 20.1049 25.8754C20.1051 25.8754 20.1052 25.8754 20.1053 25.8754C20.1054 25.8754 20.1056 25.8754 20.1057 25.8754C20.1058 25.8754 20.1059 25.8754 20.1061 25.8754C20.1062 25.8754 20.1063 25.8754 20.1065 25.8754C20.1066 25.8754 20.1067 25.8754 20.1068 25.8754C20.107 25.8754 20.1071 25.8754 20.1072 25.8754C20.1073 25.8754 20.1075 25.8754 20.1076 25.8754C20.1077 25.8754 20.1078 25.8754 20.108 25.8754C20.1081 25.8754 20.1082 25.8754 20.1084 25.8754C20.1085 25.8754 20.1086 25.8754 20.1087 25.8754C20.1089 25.8754 20.109 25.8754 20.1091 25.8754C20.1092 25.8754 20.1094 25.8754 20.1095 25.8754C20.1096 25.8754 20.1097 25.8754 20.1099 25.8754C20.11 25.8754 20.1101 25.8754 20.1102 25.8754C20.1104 25.8754 20.1105 25.8754 20.1106 25.8754C20.1107 25.8754 20.1109 25.8754 20.111 25.8754C20.1111 25.8754 20.1112 25.8754 20.1114 25.8754C20.1115 25.8754 20.1116 25.8754 20.1117 25.8754C20.1119 25.8754 20.112 25.8754 20.1121 25.8754C20.1122 25.8754 20.1124 25.8754 20.1125 25.8754C20.1126 25.8754 20.1127 25.8754 20.1128 25.8754C20.113 25.8754 20.1131 25.8754 20.1132 25.8754C20.1133 25.8754 20.1135 25.8754 20.1136 25.8754C20.1137 25.8754 20.1138 25.8754 20.114 25.8754C20.1141 25.8754 20.1142 25.8754 20.1143 25.8754C20.1145 25.8754 20.1146 25.8754 20.1147 25.8754C20.1148 25.8754 20.115 25.8754 20.1151 25.8754C20.1152 25.8754 20.1153 25.8754 20.1154 25.8754C20.1156 25.8754 20.1157 25.8754 20.1158 25.8754C20.1159 25.8754 20.1161 25.8754 20.1162 25.8754C20.1163 25.8754 20.1164 25.8754 20.1166 25.8754C20.1167 25.8754 20.1168 25.8754 20.1169 25.8754C20.117 25.8754 20.1172 25.8754 20.1173 25.8754C20.1174 25.8754 20.1175 25.8754 20.1177 25.8754C20.1178 25.8754 20.1179 25.8754 20.118 25.8754C20.1182 25.8754 20.1183 25.8754 20.1184 25.8754C20.1185 25.8754 20.1186 25.8754 20.1188 25.8754C20.1189 25.8754 20.119 25.8754 20.1191 25.8754C20.1193 25.8754 20.1194 25.8754 20.1195 25.8754C20.1196 25.8754 20.1197 25.8754 20.1199 25.8754C20.12 25.8754 20.1201 25.8754 20.1202 25.8754C20.1204 25.8754 20.1205 25.8754 20.1206 25.8754C20.1207 25.8754 20.1208 25.8754 20.121 25.8754C20.1211 25.8754 20.1212 25.8754 20.1213 25.8754C20.1215 25.8754 20.1216 25.8754 20.1217 25.8754C20.1218 25.8754 20.1219 25.8754 20.1221 25.8754C20.1222 25.8754 20.1223 25.8754 20.1224 25.8754C20.1226 25.8754 20.1227 25.8754 20.1228 25.8754C20.1229 25.8754 20.123 25.8754 20.1232 25.8754C20.1233 25.8754 20.1234 25.8754 20.1235 25.8754C20.1237 25.8754 20.1238 25.8754 20.1239 25.8754C20.124 25.8754 20.1241 25.8754 20.1243 25.8754C20.1244 25.8754 20.1245 25.8754 20.1246 25.8754C20.1248 25.8754 20.1249 25.8754 20.125 25.8754C20.1251 25.8754 20.1252 25.8754 20.1254 25.8754C20.1255 25.8754 20.1256 25.8754 20.1257 25.8754C20.1259 25.8754 20.126 25.8754 20.1261 25.8754C20.1262 25.8754 20.1263 25.8754 20.1265 25.8754C20.1266 25.8754 20.1267 25.8754 20.1268 25.8754C20.127 25.8754 20.1271 25.8754 20.1272 25.8754C20.1273 25.8754 20.1274 25.8754 20.1276 25.8754C20.1277 25.8754 20.1278 25.8754 20.1279 25.8754C20.1281 25.8754 20.1282 25.8754 20.1283 25.8754C20.1284 25.8754 20.1285 25.8754 20.1287 25.8754C20.1288 25.8754 20.1289 25.8754 20.129 25.8754C20.1292 25.8754 20.1293 25.8754 20.1294 25.8754C20.1295 25.8754 20.1296 25.8754 20.1298 25.8754C20.1299 25.8754 20.13 25.8754 20.1301 25.8754C20.1303 25.8754 20.1304 25.8754 20.1305 25.8754C20.1306 25.8754 20.1307 25.8754 20.1309 25.8754C20.131 25.8754 20.1311 25.8754 20.1312 25.8754C20.1314 25.8754 20.1315 25.8754 20.1316 25.8754C20.1317 25.8754 20.1318 25.8754 20.132 25.8754C20.1321 25.8754 20.1322 25.8754 20.1323 25.8754C20.1325 25.8754 20.1326 25.8754 20.1327 25.8754C20.1328 25.8754 20.133 25.8754 20.1331 25.8754C20.1332 25.8754 20.1333 25.8754 20.1334 25.8754C20.1336 25.8754 20.1337 25.8754 20.1338 25.8754C20.1339 25.8754 20.1341 25.8754 20.1342 25.8754C20.1343 25.8754 20.1344 25.8754 20.1346 25.8754C20.1347 25.8754 20.1348 25.8754 20.1349 25.8754C20.135 25.8754 20.1352 25.8754 20.1353 25.8754C20.1354 25.8754 20.1355 25.8754 20.1357 25.8754C20.1358 25.8754 20.1359 25.8754 20.136 25.8754C20.1362 25.8754 20.1363 25.8754 20.1364 25.8754C20.1365 25.8754 20.1367 25.8754 20.1368 25.8754C20.1369 25.8754 20.137 25.8754 20.1372 25.8754C20.1373 25.8754 20.1374 25.8754 20.1375 25.8754C20.1376 25.8754 20.1378 25.8754 20.1379 25.8754C20.138 25.8754 20.1381 25.8754 20.1383 25.8754C20.1384 25.8754 20.1385 25.8754 20.1386 25.8754C20.1388 25.8754 20.1389 25.8754 20.139 25.8754C20.1391 25.8754 20.1393 25.8754 20.1394 25.8754C20.1395 25.8754 20.1396 25.8754 20.1398 25.8754C20.1399 25.8754 20.14 25.8754 20.1401 25.8754C20.1403 25.8754 20.1404 25.8754 20.1405 25.8754C20.1406 25.8754 20.1408 25.8754 20.1409 25.8754C20.141 25.8754 20.1411 25.8754 20.1413 25.8754C20.1414 25.8754 20.1415 25.8754 20.1416 25.8754C20.1418 25.8754 20.1419 25.8754 20.142 25.8754C20.1422 25.8754 20.1423 25.8754 20.1424 25.8754C20.1425 25.8754 20.1427 25.8754 20.1428 25.8754C20.1429 25.8754 20.143 25.8754 20.1432 25.8754C20.1433 25.8754 20.1434 25.8754 20.1435 25.8754C20.1437 25.8754 20.1438 25.8754 20.1439 25.8754C20.144 25.8754 20.1442 25.8754 20.1443 25.8754C20.1444 25.8754 20.1446 25.8754 20.1447 25.8754C20.1448 25.8754 20.1449 25.8754 20.1451 25.8754C20.1452 25.8754 20.1453 25.8754 20.1455 25.8754C20.1456 25.8754 20.1457 25.8754 20.1458 25.8754C20.146 25.8754 20.1461 25.8754 20.1462 25.8754C20.1463 25.8754 20.1465 25.8754 20.1466 25.8754C20.1467 25.8754 20.1469 25.8754 20.147 25.8754C20.1471 25.8754 20.1472 25.8754 20.1474 25.8754C20.1475 25.8754 20.1476 25.8754 20.1478 25.8754C20.1479 25.8754 20.148 25.8754 20.1481 25.8754C20.1483 25.8754 20.1484 25.8754 20.1485 25.8754C20.1487 25.8754 20.1488 25.8754 20.1489 25.8754C20.1491 25.8754 20.1492 25.8754 20.1493 25.8754C20.1494 25.8754 20.1496 25.8754 20.1497 25.8754C20.1498 25.8754 20.15 25.8754 20.1501 25.8754C20.1502 25.8754 20.1504 25.8754 20.1505 25.8754C20.1506 25.8754 20.1507 25.8754 20.1509 25.8754C20.151 25.8754 20.1511 25.8754 20.1513 25.8754C20.1514 25.8754 20.1515 25.8754 20.1517 25.8754C20.1518 25.8754 20.1519 25.8754 20.1521 25.8754C20.1522 25.8754 20.1523 25.8754 20.1525 25.8754C20.1526 25.8754 20.1527 25.8754 20.1529 25.8754C20.153 25.8754 20.1531 25.8754 20.1533 25.8754C20.1534 25.8754 20.1535 25.8754 20.1536 25.8754C20.1538 25.8754 20.1539 25.8754 20.154 25.8754C20.1542 25.8754 20.1543 25.8754 20.1544 25.8754C20.1546 25.8754 20.1547 25.8754 20.1548 25.8754C20.155 25.8754 20.1551 25.8754 20.1552 25.8754C20.1554 25.8754 20.1555 25.8754 20.1557 25.8754C20.1558 25.8754 20.1559 25.8754 20.1561 25.8754C20.1562 25.8754 20.1563 25.8754 20.1565 25.8754C20.1566 25.8754 20.1567 25.8754 20.1569 25.8754C20.157 25.8754 20.1571 25.8754 20.1573 25.8754C20.1574 25.8754 20.1575 25.8754 20.1577 25.8754C20.1578 25.8754 20.1579 25.8754 20.1581 25.8754C20.1582 25.8754 20.1584 25.8754 20.1585 25.8754C20.1586 25.8754 20.1588 25.8754 20.1589 25.8754C20.159 25.8754 20.1592 25.8754 20.1593 25.8754C20.1595 25.8754 20.1596 25.8754 20.1597 25.8754C20.1599 25.8754 20.16 25.8754 20.1601 25.8754C20.1603 25.8754 20.1604 25.8754 20.1606 25.8754C20.1607 25.8754 20.1608 25.8754 20.161 25.8754C20.1611 25.8754 20.1612 25.8754 20.1614 25.8754C20.1615 25.8754 20.1617 25.8754 20.1618 25.8754C20.1619 25.8754 20.1621 25.8754 20.1622 25.8754C20.1624 25.8754 20.1625 25.8754 20.1626 25.8754C20.1628 25.8754 20.1629 25.8754 20.1631 25.8754C20.1632 25.8754 20.1633 25.8754 20.1635 25.8754C20.1636 25.8754 20.1638 25.8754 20.1639 25.8754C20.164 25.8754 20.1642 25.8754 20.1643 25.8754C20.1645 25.8754 20.1646 25.8754 20.1648 25.8754C20.1649 25.8754 20.165 25.8754 20.1652 25.8754C20.1653 25.8754 20.1655 25.8754 20.1656 25.8754C20.1657 25.8754 20.1659 25.8754 20.166 25.8754C20.1662 25.8754 20.1663 25.8754 20.1665 25.8754C20.1666 25.8754 20.1668 25.8754 20.1669 25.8754C20.167 25.8754 20.1672 25.8754 20.1673 25.8754C20.1675 25.8754 20.1676 25.8754 20.1678 25.8754C20.1679 25.8754 20.1681 25.8754 20.1682 25.8754C20.1683 25.8754 20.1685 25.8754 20.1686 25.8754C20.1688 25.8754 20.1689 25.8754 20.1691 25.8754C20.1692 25.8754 20.1694 25.8754 20.1695 25.8754C20.1697 25.8754 20.1698 25.8754 20.1699 25.8754C20.1701 25.8754 20.1702 25.8754 20.1704 25.8754C20.1705 25.8754 20.1707 25.8754 20.1708 25.8754C20.171 25.8754 20.1711 25.8754 20.1713 25.8754C20.1714 25.8754 20.1716 25.8754 20.1717 25.8754C20.1719 25.8754 20.172 25.8754 20.1722 25.8754C20.1723 25.8754 20.1725 25.8754 20.1726 25.8754C20.1728 25.8754 20.1729 25.8754 20.1731 25.8754C20.1732 25.8754 20.1734 25.8754 20.1735 25.8754C20.1737 25.8754 20.1738 25.8754 20.174 25.8754C20.1741 25.8754 20.1743 25.8754 20.1744 25.8754C20.1746 25.8754 20.1747 25.8754 20.1749 25.8754C20.175 25.8754 20.1752 25.8754 20.1753 25.8754C20.1755 25.8754 20.1756 25.8754 20.1758 25.8754C20.1759 25.8754 20.1761 25.8754 20.1762 25.8754C20.1764 25.8754 20.1765 25.8754 20.1767 25.8754C20.1769 25.8754 20.177 25.8754 20.1772 25.8754C20.1773 25.8754 20.1775 25.8754 20.1776 25.8754C20.1778 25.8754 20.1779 25.8754 20.1781 25.8754C20.1782 25.8754 20.1784 25.8754 20.1786 25.8754C20.1787 25.8754 20.1789 25.8754 20.179 25.8754C20.1792 25.8754 20.1793 25.8754 20.1795 25.8754C20.1796 25.8754 20.1798 25.8754 20.18 25.8754C20.1801 25.8754 20.1803 25.8754 20.1804 25.8754C20.1806 25.8754 20.1807 25.8754 20.1809 25.8754C20.1811 25.8754 20.1812 25.8754 20.1814 25.8754C20.1815 25.8754 20.1817 25.8754 20.1819 25.8754C20.182 25.8754 20.1822 25.8754 20.1823 25.8754C20.1825 25.8754 20.1827 25.8754 20.1828 25.8754C20.183 25.8754 20.1831 25.8754 20.1833 25.8754C20.1835 25.8754 20.1836 25.8754 20.1838 25.8754C20.1839 25.8754 20.1841 25.8754 20.1843 25.8754C20.1844 25.8754 20.1846 25.8754 20.1847 25.8754C20.1849 25.8754 20.1851 25.8754 20.1852 25.8754C20.1854 25.8754 20.1856 25.8754 20.1857 25.8754C20.1859 25.8754 20.1861 25.8754 20.1862 25.8754C20.1864 25.8754 20.1865 25.8754 20.1867 25.8754C20.1869 25.8754 20.187 25.8754 20.1872 25.8754C20.1874 25.8754 20.1875 25.8754 20.1877 25.8754C20.1879 25.8754 20.188 25.8754 20.1882 25.8754C20.1884 25.8754 20.1885 25.8754 20.1887 25.8754C20.1889 25.8754 20.189 25.8754 20.1892 25.8754C20.1894 25.8754 20.1895 25.8754 20.1897 25.8754C20.1899 25.8754 20.19 25.8754 20.1902 25.8754C20.1904 25.8754 20.1905 25.8754 20.1907 25.8754C20.1909 25.8754 20.1911 25.8754 20.1912 25.8754C20.1914 25.8754 20.1916 25.8754 20.1917 25.8754C20.1919 25.8754 20.1921 25.8754 20.1922 25.8754C20.1924 25.8754 20.1926 25.8754 20.1928 25.8754C20.1929 25.8754 20.1931 25.8754 20.1933 25.8754C20.1934 25.8754 20.1936 25.8754 20.1938 25.8754C20.194 25.8754 20.1941 25.8754 20.1943 25.8754C20.1945 25.8754 20.1947 25.8754 20.1948 25.8754C20.195 25.8754 20.1952 25.8754 20.1954 25.8754C20.1955 25.8754 20.1957 25.8754 20.1959 25.8754C20.1961 25.8754 20.1962 25.8754 20.1964 25.8754C20.1966 25.8754 20.1968 25.8754 20.1969 25.8754C20.1971 25.8754 20.1973 25.8754 20.1975 25.8754C20.1976 25.8754 20.1978 25.8754 20.198 25.8754C20.1982 25.8754 20.1984 25.8754 20.1985 25.8754C20.1987 25.8754 20.1989 25.8754 20.1991 25.8754C20.1992 25.8754 20.1994 25.8754 20.1996 25.8754C20.1998 25.8754 20.2 25.8754 20.2001 25.8754C20.2003 25.8754 20.2005 25.8754 20.2007 25.8754C20.2009 25.8754 20.2011 25.8754 20.2012 25.8754C20.2014 25.8754 20.2016 25.8754 20.2018 25.8754C20.202 25.8754 20.2021 25.8754 20.2023 25.8754C20.2025 25.8754 20.2027 25.8754 20.2029 25.8754C20.2031 25.8754 20.2032 25.8754 20.2034 25.8754C20.2036 25.8754 20.2038 25.8754 20.204 25.8754C20.2042 25.8754 20.2044 25.8754 20.2045 25.8754C20.2047 25.8754 20.2049 25.8754 20.2051 25.8754C20.2053 25.8754 20.2055 25.8754 20.2057 25.8754C20.2058 25.8754 20.206 25.8754 20.2062 25.8754C20.2064 25.8754 20.2066 25.8754 20.2068 25.8754C20.207 25.8754 20.2072 25.8754 20.2074 25.8754C20.2075 25.8754 20.2077 25.8754 20.2079 25.8754C20.2081 25.8754 20.2083 25.8754 20.2085 25.8754C20.2087 25.8754 20.2089 25.8754 20.2091 25.8754C20.2093 25.8754 20.2095 25.8754 20.2096 25.8754C20.2098 25.8754 20.21 25.8754 20.2102 25.8754C20.2104 25.8754 20.2106 25.8754 20.2108 25.8754C20.211 25.8754 20.2112 25.8754 20.2114 25.8754C20.2116 25.8754 20.2118 25.8754 20.212 25.8754C20.2122 25.8754 20.2124 25.8754 20.2126 25.8754C20.2127 25.8754 20.2129 25.8754 20.2131 25.8754C20.2133 25.8754 20.2135 25.8754 20.2137 25.8754C20.2139 25.8754 20.2141 25.8754 20.2143 25.8754C20.2145 25.8754 20.2147 25.8754 20.2149 25.8754C20.2151 25.8754 20.2153 25.8754 20.2155 25.8754C20.2157 25.8754 20.2159 25.8754 20.2161 25.8754C20.2163 25.8754 20.2165 25.8754 20.2167 25.8754C20.2169 25.8754 20.2171 25.8754 20.2173 25.8754C20.2175 25.8754 20.2177 25.8754 20.2179 25.8754C20.2181 25.8754 20.2183 25.8754 20.2185 25.8754C20.2187 25.8754 20.2189 25.8754 20.2192 25.8754C20.2194 25.8754 20.2196 25.8754 20.2198 25.8754C20.22 25.8754 20.2202 25.8754 20.2204 25.8754C20.2206 25.8754 20.2208 25.8754 20.221 25.8754C20.2212 25.8754 20.2214 25.8754 20.2216 25.8754C20.2218 25.8754 20.222 25.8754 20.2222 25.8754C20.2225 25.8754 20.2227 25.8754 20.2229 25.8754C20.2231 25.8754 20.2233 25.8754 20.2235 25.8754C20.2237 25.8754 20.2239 25.8754 20.2241 25.8754C20.2243 25.8754 20.2246 25.8754 20.2248 25.8754C20.225 25.8754 20.2252 25.8754 20.2254 25.8754C20.2256 25.8754 20.2258 25.8754 20.226 25.8754C20.2262 25.8754 20.2265 25.8754 20.2267 25.8754C20.2269 25.8754 20.2271 25.8754 20.2273 25.8754C20.2275 25.8754 20.2277 25.8754 20.228 25.8754C20.2282 25.8754 20.2284 25.8754 20.2286 25.8754C20.2288 25.8754 20.229 25.8754 20.2293 25.8754C20.2295 25.8754 20.2297 25.8754 20.2299 25.8754C20.2301 25.8754 20.2304 25.8754 20.2306 25.8754C20.2308 25.8754 20.231 25.8754 20.2312 25.8754C20.2314 25.8754 20.2317 25.8754 20.2319 25.8754C20.2321 25.8754 20.2323 25.8754 20.2326 25.8754C20.2328 25.8754 20.233 25.8754 20.2332 25.8754C20.2334 25.8754 20.2337 25.8754 20.2339 25.8754C20.2341 25.8754 20.2343 25.8754 20.2346 25.8754C20.2348 25.8754 20.235 25.8754 20.2352 25.8754C20.2355 25.8754 20.2357 25.8754 20.2359 25.8754C20.2361 25.8754 20.2364 25.8754 20.2366 25.8754C20.2368 25.8754 20.237 25.8754 20.2373 25.8754C20.2375 25.8754 20.2377 25.8754 20.238 25.8754C20.2382 25.8754 20.2384 25.8754 20.2386 25.8754C20.2389 25.8754 20.2391 25.8754 20.2393 25.8754C20.2396 25.8754 20.2398 25.8754 20.24 25.8754C20.2403 25.8754 20.2405 25.8754 20.2407 25.8754C20.2409 25.8754 20.2412 25.8754 20.2414 25.8754C20.2416 25.8754 20.2419 25.8754 20.2421 25.8754C20.2423 25.8754 20.2426 25.8754 20.2428 25.8754C20.243 25.8754 20.2433 25.8754 20.2435 25.8754C20.2438 25.8754 20.244 25.8754 20.2442 25.8754C20.2445 25.8754 20.2447 25.8754 20.2449 25.8754C20.2452 25.8754 20.2454 25.8754 20.2457 25.8754C20.2459 25.8754 20.2461 25.8754 20.2464 25.8754C20.2466 25.8754 20.2469 25.8754 20.2471 25.8754C20.2473 25.8754 20.2476 25.8754 20.2478 25.8754C20.2481 25.8754 20.2483 25.8754 20.2485 25.8754C20.2488 25.8754 20.249 25.8754 20.2493 25.8754C20.2495 25.8754 20.2498 25.8754 20.25 25.8754V21.8754C20.2498 21.8754 20.2495 21.8754 20.2493 21.8754C20.249 21.8754 20.2488 21.8754 20.2485 21.8754C20.2483 21.8754 20.2481 21.8754 20.2478 21.8754C20.2476 21.8754 20.2473 21.8754 20.2471 21.8754C20.2469 21.8754 20.2466 21.8754 20.2464 21.8754C20.2461 21.8754 20.2459 21.8754 20.2457 21.8754C20.2454 21.8754 20.2452 21.8754 20.2449 21.8754C20.2447 21.8754 20.2445 21.8754 20.2442 21.8754C20.244 21.8754 20.2438 21.8754 20.2435 21.8754C20.2433 21.8754 20.243 21.8754 20.2428 21.8754C20.2426 21.8754 20.2423 21.8754 20.2421 21.8754C20.2419 21.8754 20.2416 21.8754 20.2414 21.8754C20.2412 21.8754 20.2409 21.8754 20.2407 21.8754C20.2405 21.8754 20.2403 21.8754 20.24 21.8754C20.2398 21.8754 20.2396 21.8754 20.2393 21.8754C20.2391 21.8754 20.2389 21.8754 20.2386 21.8754C20.2384 21.8754 20.2382 21.8754 20.238 21.8754C20.2377 21.8754 20.2375 21.8754 20.2373 21.8754C20.237 21.8754 20.2368 21.8754 20.2366 21.8754C20.2364 21.8754 20.2361 21.8754 20.2359 21.8754C20.2357 21.8754 20.2355 21.8754 20.2352 21.8754C20.235 21.8754 20.2348 21.8754 20.2346 21.8754C20.2343 21.8754 20.2341 21.8754 20.2339 21.8754C20.2337 21.8754 20.2334 21.8754 20.2332 21.8754C20.233 21.8754 20.2328 21.8754 20.2326 21.8754C20.2323 21.8754 20.2321 21.8754 20.2319 21.8754C20.2317 21.8754 20.2314 21.8754 20.2312 21.8754C20.231 21.8754 20.2308 21.8754 20.2306 21.8754C20.2304 21.8754 20.2301 21.8754 20.2299 21.8754C20.2297 21.8754 20.2295 21.8754 20.2293 21.8754C20.229 21.8754 20.2288 21.8754 20.2286 21.8754C20.2284 21.8754 20.2282 21.8754 20.228 21.8754C20.2277 21.8754 20.2275 21.8754 20.2273 21.8754C20.2271 21.8754 20.2269 21.8754 20.2267 21.8754C20.2265 21.8754 20.2262 21.8754 20.226 21.8754C20.2258 21.8754 20.2256 21.8754 20.2254 21.8754C20.2252 21.8754 20.225 21.8754 20.2248 21.8754C20.2246 21.8754 20.2243 21.8754 20.2241 21.8754C20.2239 21.8754 20.2237 21.8754 20.2235 21.8754C20.2233 21.8754 20.2231 21.8754 20.2229 21.8754C20.2227 21.8754 20.2225 21.8754 20.2222 21.8754C20.222 21.8754 20.2218 21.8754 20.2216 21.8754C20.2214 21.8754 20.2212 21.8754 20.221 21.8754C20.2208 21.8754 20.2206 21.8754 20.2204 21.8754C20.2202 21.8754 20.22 21.8754 20.2198 21.8754C20.2196 21.8754 20.2194 21.8754 20.2192 21.8754C20.2189 21.8754 20.2187 21.8754 20.2185 21.8754C20.2183 21.8754 20.2181 21.8754 20.2179 21.8754C20.2177 21.8754 20.2175 21.8754 20.2173 21.8754C20.2171 21.8754 20.2169 21.8754 20.2167 21.8754C20.2165 21.8754 20.2163 21.8754 20.2161 21.8754C20.2159 21.8754 20.2157 21.8754 20.2155 21.8754C20.2153 21.8754 20.2151 21.8754 20.2149 21.8754C20.2147 21.8754 20.2145 21.8754 20.2143 21.8754C20.2141 21.8754 20.2139 21.8754 20.2137 21.8754C20.2135 21.8754 20.2133 21.8754 20.2131 21.8754C20.2129 21.8754 20.2127 21.8754 20.2126 21.8754C20.2124 21.8754 20.2122 21.8754 20.212 21.8754C20.2118 21.8754 20.2116 21.8754 20.2114 21.8754C20.2112 21.8754 20.211 21.8754 20.2108 21.8754C20.2106 21.8754 20.2104 21.8754 20.2102 21.8754C20.21 21.8754 20.2098 21.8754 20.2096 21.8754C20.2095 21.8754 20.2093 21.8754 20.2091 21.8754C20.2089 21.8754 20.2087 21.8754 20.2085 21.8754C20.2083 21.8754 20.2081 21.8754 20.2079 21.8754C20.2077 21.8754 20.2075 21.8754 20.2074 21.8754C20.2072 21.8754 20.207 21.8754 20.2068 21.8754C20.2066 21.8754 20.2064 21.8754 20.2062 21.8754C20.206 21.8754 20.2058 21.8754 20.2057 21.8754C20.2055 21.8754 20.2053 21.8754 20.2051 21.8754C20.2049 21.8754 20.2047 21.8754 20.2045 21.8754C20.2044 21.8754 20.2042 21.8754 20.204 21.8754C20.2038 21.8754 20.2036 21.8754 20.2034 21.8754C20.2032 21.8754 20.2031 21.8754 20.2029 21.8754C20.2027 21.8754 20.2025 21.8754 20.2023 21.8754C20.2021 21.8754 20.202 21.8754 20.2018 21.8754C20.2016 21.8754 20.2014 21.8754 20.2012 21.8754C20.2011 21.8754 20.2009 21.8754 20.2007 21.8754C20.2005 21.8754 20.2003 21.8754 20.2001 21.8754C20.2 21.8754 20.1998 21.8754 20.1996 21.8754C20.1994 21.8754 20.1992 21.8754 20.1991 21.8754C20.1989 21.8754 20.1987 21.8754 20.1985 21.8754C20.1984 21.8754 20.1982 21.8754 20.198 21.8754C20.1978 21.8754 20.1976 21.8754 20.1975 21.8754C20.1973 21.8754 20.1971 21.8754 20.1969 21.8754C20.1968 21.8754 20.1966 21.8754 20.1964 21.8754C20.1962 21.8754 20.1961 21.8754 20.1959 21.8754C20.1957 21.8754 20.1955 21.8754 20.1954 21.8754C20.1952 21.8754 20.195 21.8754 20.1948 21.8754C20.1947 21.8754 20.1945 21.8754 20.1943 21.8754C20.1941 21.8754 20.194 21.8754 20.1938 21.8754C20.1936 21.8754 20.1934 21.8754 20.1933 21.8754C20.1931 21.8754 20.1929 21.8754 20.1928 21.8754C20.1926 21.8754 20.1924 21.8754 20.1922 21.8754C20.1921 21.8754 20.1919 21.8754 20.1917 21.8754C20.1916 21.8754 20.1914 21.8754 20.1912 21.8754C20.1911 21.8754 20.1909 21.8754 20.1907 21.8754C20.1905 21.8754 20.1904 21.8754 20.1902 21.8754C20.19 21.8754 20.1899 21.8754 20.1897 21.8754C20.1895 21.8754 20.1894 21.8754 20.1892 21.8754C20.189 21.8754 20.1889 21.8754 20.1887 21.8754C20.1885 21.8754 20.1884 21.8754 20.1882 21.8754C20.188 21.8754 20.1879 21.8754 20.1877 21.8754C20.1875 21.8754 20.1874 21.8754 20.1872 21.8754C20.187 21.8754 20.1869 21.8754 20.1867 21.8754C20.1865 21.8754 20.1864 21.8754 20.1862 21.8754C20.1861 21.8754 20.1859 21.8754 20.1857 21.8754C20.1856 21.8754 20.1854 21.8754 20.1852 21.8754C20.1851 21.8754 20.1849 21.8754 20.1847 21.8754C20.1846 21.8754 20.1844 21.8754 20.1843 21.8754C20.1841 21.8754 20.1839 21.8754 20.1838 21.8754C20.1836 21.8754 20.1835 21.8754 20.1833 21.8754C20.1831 21.8754 20.183 21.8754 20.1828 21.8754C20.1827 21.8754 20.1825 21.8754 20.1823 21.8754C20.1822 21.8754 20.182 21.8754 20.1819 21.8754C20.1817 21.8754 20.1815 21.8754 20.1814 21.8754C20.1812 21.8754 20.1811 21.8754 20.1809 21.8754C20.1807 21.8754 20.1806 21.8754 20.1804 21.8754C20.1803 21.8754 20.1801 21.8754 20.18 21.8754C20.1798 21.8754 20.1796 21.8754 20.1795 21.8754C20.1793 21.8754 20.1792 21.8754 20.179 21.8754C20.1789 21.8754 20.1787 21.8754 20.1786 21.8754C20.1784 21.8754 20.1782 21.8754 20.1781 21.8754C20.1779 21.8754 20.1778 21.8754 20.1776 21.8754C20.1775 21.8754 20.1773 21.8754 20.1772 21.8754C20.177 21.8754 20.1769 21.8754 20.1767 21.8754C20.1765 21.8754 20.1764 21.8754 20.1762 21.8754C20.1761 21.8754 20.1759 21.8754 20.1758 21.8754C20.1756 21.8754 20.1755 21.8754 20.1753 21.8754C20.1752 21.8754 20.175 21.8754 20.1749 21.8754C20.1747 21.8754 20.1746 21.8754 20.1744 21.8754C20.1743 21.8754 20.1741 21.8754 20.174 21.8754C20.1738 21.8754 20.1737 21.8754 20.1735 21.8754C20.1734 21.8754 20.1732 21.8754 20.1731 21.8754C20.1729 21.8754 20.1728 21.8754 20.1726 21.8754C20.1725 21.8754 20.1723 21.8754 20.1722 21.8754C20.172 21.8754 20.1719 21.8754 20.1717 21.8754C20.1716 21.8754 20.1714 21.8754 20.1713 21.8754C20.1711 21.8754 20.171 21.8754 20.1708 21.8754C20.1707 21.8754 20.1705 21.8754 20.1704 21.8754C20.1702 21.8754 20.1701 21.8754 20.1699 21.8754C20.1698 21.8754 20.1697 21.8754 20.1695 21.8754C20.1694 21.8754 20.1692 21.8754 20.1691 21.8754C20.1689 21.8754 20.1688 21.8754 20.1686 21.8754C20.1685 21.8754 20.1683 21.8754 20.1682 21.8754C20.1681 21.8754 20.1679 21.8754 20.1678 21.8754C20.1676 21.8754 20.1675 21.8754 20.1673 21.8754C20.1672 21.8754 20.167 21.8754 20.1669 21.8754C20.1668 21.8754 20.1666 21.8754 20.1665 21.8754C20.1663 21.8754 20.1662 21.8754 20.166 21.8754C20.1659 21.8754 20.1657 21.8754 20.1656 21.8754C20.1655 21.8754 20.1653 21.8754 20.1652 21.8754C20.165 21.8754 20.1649 21.8754 20.1648 21.8754C20.1646 21.8754 20.1645 21.8754 20.1643 21.8754C20.1642 21.8754 20.164 21.8754 20.1639 21.8754C20.1638 21.8754 20.1636 21.8754 20.1635 21.8754C20.1633 21.8754 20.1632 21.8754 20.1631 21.8754C20.1629 21.8754 20.1628 21.8754 20.1626 21.8754C20.1625 21.8754 20.1624 21.8754 20.1622 21.8754C20.1621 21.8754 20.1619 21.8754 20.1618 21.8754C20.1617 21.8754 20.1615 21.8754 20.1614 21.8754C20.1612 21.8754 20.1611 21.8754 20.161 21.8754C20.1608 21.8754 20.1607 21.8754 20.1606 21.8754C20.1604 21.8754 20.1603 21.8754 20.1601 21.8754C20.16 21.8754 20.1599 21.8754 20.1597 21.8754C20.1596 21.8754 20.1595 21.8754 20.1593 21.8754C20.1592 21.8754 20.159 21.8754 20.1589 21.8754C20.1588 21.8754 20.1586 21.8754 20.1585 21.8754C20.1584 21.8754 20.1582 21.8754 20.1581 21.8754C20.1579 21.8754 20.1578 21.8754 20.1577 21.8754C20.1575 21.8754 20.1574 21.8754 20.1573 21.8754C20.1571 21.8754 20.157 21.8754 20.1569 21.8754C20.1567 21.8754 20.1566 21.8754 20.1565 21.8754C20.1563 21.8754 20.1562 21.8754 20.1561 21.8754C20.1559 21.8754 20.1558 21.8754 20.1557 21.8754C20.1555 21.8754 20.1554 21.8754 20.1552 21.8754C20.1551 21.8754 20.155 21.8754 20.1548 21.8754C20.1547 21.8754 20.1546 21.8754 20.1544 21.8754C20.1543 21.8754 20.1542 21.8754 20.154 21.8754C20.1539 21.8754 20.1538 21.8754 20.1536 21.8754C20.1535 21.8754 20.1534 21.8754 20.1533 21.8754C20.1531 21.8754 20.153 21.8754 20.1529 21.8754C20.1527 21.8754 20.1526 21.8754 20.1525 21.8754C20.1523 21.8754 20.1522 21.8754 20.1521 21.8754C20.1519 21.8754 20.1518 21.8754 20.1517 21.8754C20.1515 21.8754 20.1514 21.8754 20.1513 21.8754C20.1511 21.8754 20.151 21.8754 20.1509 21.8754C20.1507 21.8754 20.1506 21.8754 20.1505 21.8754C20.1504 21.8754 20.1502 21.8754 20.1501 21.8754C20.15 21.8754 20.1498 21.8754 20.1497 21.8754C20.1496 21.8754 20.1494 21.8754 20.1493 21.8754C20.1492 21.8754 20.1491 21.8754 20.1489 21.8754C20.1488 21.8754 20.1487 21.8754 20.1485 21.8754C20.1484 21.8754 20.1483 21.8754 20.1481 21.8754C20.148 21.8754 20.1479 21.8754 20.1478 21.8754C20.1476 21.8754 20.1475 21.8754 20.1474 21.8754C20.1472 21.8754 20.1471 21.8754 20.147 21.8754C20.1469 21.8754 20.1467 21.8754 20.1466 21.8754C20.1465 21.8754 20.1463 21.8754 20.1462 21.8754C20.1461 21.8754 20.146 21.8754 20.1458 21.8754C20.1457 21.8754 20.1456 21.8754 20.1455 21.8754C20.1453 21.8754 20.1452 21.8754 20.1451 21.8754C20.1449 21.8754 20.1448 21.8754 20.1447 21.8754C20.1446 21.8754 20.1444 21.8754 20.1443 21.8754C20.1442 21.8754 20.144 21.8754 20.1439 21.8754C20.1438 21.8754 20.1437 21.8754 20.1435 21.8754C20.1434 21.8754 20.1433 21.8754 20.1432 21.8754C20.143 21.8754 20.1429 21.8754 20.1428 21.8754C20.1427 21.8754 20.1425 21.8754 20.1424 21.8754C20.1423 21.8754 20.1422 21.8754 20.142 21.8754C20.1419 21.8754 20.1418 21.8754 20.1416 21.8754C20.1415 21.8754 20.1414 21.8754 20.1413 21.8754C20.1411 21.8754 20.141 21.8754 20.1409 21.8754C20.1408 21.8754 20.1406 21.8754 20.1405 21.8754C20.1404 21.8754 20.1403 21.8754 20.1401 21.8754C20.14 21.8754 20.1399 21.8754 20.1398 21.8754C20.1396 21.8754 20.1395 21.8754 20.1394 21.8754C20.1393 21.8754 20.1391 21.8754 20.139 21.8754C20.1389 21.8754 20.1388 21.8754 20.1386 21.8754C20.1385 21.8754 20.1384 21.8754 20.1383 21.8754C20.1381 21.8754 20.138 21.8754 20.1379 21.8754C20.1378 21.8754 20.1376 21.8754 20.1375 21.8754C20.1374 21.8754 20.1373 21.8754 20.1372 21.8754C20.137 21.8754 20.1369 21.8754 20.1368 21.8754C20.1367 21.8754 20.1365 21.8754 20.1364 21.8754C20.1363 21.8754 20.1362 21.8754 20.136 21.8754C20.1359 21.8754 20.1358 21.8754 20.1357 21.8754C20.1355 21.8754 20.1354 21.8754 20.1353 21.8754C20.1352 21.8754 20.135 21.8754 20.1349 21.8754C20.1348 21.8754 20.1347 21.8754 20.1346 21.8754C20.1344 21.8754 20.1343 21.8754 20.1342 21.8754C20.1341 21.8754 20.1339 21.8754 20.1338 21.8754C20.1337 21.8754 20.1336 21.8754 20.1334 21.8754C20.1333 21.8754 20.1332 21.8754 20.1331 21.8754C20.133 21.8754 20.1328 21.8754 20.1327 21.8754C20.1326 21.8754 20.1325 21.8754 20.1323 21.8754C20.1322 21.8754 20.1321 21.8754 20.132 21.8754C20.1318 21.8754 20.1317 21.8754 20.1316 21.8754C20.1315 21.8754 20.1314 21.8754 20.1312 21.8754C20.1311 21.8754 20.131 21.8754 20.1309 21.8754C20.1307 21.8754 20.1306 21.8754 20.1305 21.8754C20.1304 21.8754 20.1303 21.8754 20.1301 21.8754C20.13 21.8754 20.1299 21.8754 20.1298 21.8754C20.1296 21.8754 20.1295 21.8754 20.1294 21.8754C20.1293 21.8754 20.1292 21.8754 20.129 21.8754C20.1289 21.8754 20.1288 21.8754 20.1287 21.8754C20.1285 21.8754 20.1284 21.8754 20.1283 21.8754C20.1282 21.8754 20.1281 21.8754 20.1279 21.8754C20.1278 21.8754 20.1277 21.8754 20.1276 21.8754C20.1274 21.8754 20.1273 21.8754 20.1272 21.8754C20.1271 21.8754 20.127 21.8754 20.1268 21.8754C20.1267 21.8754 20.1266 21.8754 20.1265 21.8754C20.1263 21.8754 20.1262 21.8754 20.1261 21.8754C20.126 21.8754 20.1259 21.8754 20.1257 21.8754C20.1256 21.8754 20.1255 21.8754 20.1254 21.8754C20.1252 21.8754 20.1251 21.8754 20.125 21.8754C20.1249 21.8754 20.1248 21.8754 20.1246 21.8754C20.1245 21.8754 20.1244 21.8754 20.1243 21.8754C20.1241 21.8754 20.124 21.8754 20.1239 21.8754C20.1238 21.8754 20.1237 21.8754 20.1235 21.8754C20.1234 21.8754 20.1233 21.8754 20.1232 21.8754C20.123 21.8754 20.1229 21.8754 20.1228 21.8754C20.1227 21.8754 20.1226 21.8754 20.1224 21.8754C20.1223 21.8754 20.1222 21.8754 20.1221 21.8754C20.1219 21.8754 20.1218 21.8754 20.1217 21.8754C20.1216 21.8754 20.1215 21.8754 20.1213 21.8754C20.1212 21.8754 20.1211 21.8754 20.121 21.8754C20.1208 21.8754 20.1207 21.8754 20.1206 21.8754C20.1205 21.8754 20.1204 21.8754 20.1202 21.8754C20.1201 21.8754 20.12 21.8754 20.1199 21.8754C20.1197 21.8754 20.1196 21.8754 20.1195 21.8754C20.1194 21.8754 20.1193 21.8754 20.1191 21.8754C20.119 21.8754 20.1189 21.8754 20.1188 21.8754C20.1186 21.8754 20.1185 21.8754 20.1184 21.8754C20.1183 21.8754 20.1182 21.8754 20.118 21.8754C20.1179 21.8754 20.1178 21.8754 20.1177 21.8754C20.1175 21.8754 20.1174 21.8754 20.1173 21.8754C20.1172 21.8754 20.117 21.8754 20.1169 21.8754C20.1168 21.8754 20.1167 21.8754 20.1166 21.8754C20.1164 21.8754 20.1163 21.8754 20.1162 21.8754C20.1161 21.8754 20.1159 21.8754 20.1158 21.8754C20.1157 21.8754 20.1156 21.8754 20.1154 21.8754C20.1153 21.8754 20.1152 21.8754 20.1151 21.8754C20.115 21.8754 20.1148 21.8754 20.1147 21.8754C20.1146 21.8754 20.1145 21.8754 20.1143 21.8754C20.1142 21.8754 20.1141 21.8754 20.114 21.8754C20.1138 21.8754 20.1137 21.8754 20.1136 21.8754C20.1135 21.8754 20.1133 21.8754 20.1132 21.8754C20.1131 21.8754 20.113 21.8754 20.1128 21.8754C20.1127 21.8754 20.1126 21.8754 20.1125 21.8754C20.1124 21.8754 20.1122 21.8754 20.1121 21.8754C20.112 21.8754 20.1119 21.8754 20.1117 21.8754C20.1116 21.8754 20.1115 21.8754 20.1114 21.8754C20.1112 21.8754 20.1111 21.8754 20.111 21.8754C20.1109 21.8754 20.1107 21.8754 20.1106 21.8754C20.1105 21.8754 20.1104 21.8754 20.1102 21.8754C20.1101 21.8754 20.11 21.8754 20.1099 21.8754C20.1097 21.8754 20.1096 21.8754 20.1095 21.8754C20.1094 21.8754 20.1092 21.8754 20.1091 21.8754C20.109 21.8754 20.1089 21.8754 20.1087 21.8754C20.1086 21.8754 20.1085 21.8754 20.1084 21.8754C20.1082 21.8754 20.1081 21.8754 20.108 21.8754C20.1078 21.8754 20.1077 21.8754 20.1076 21.8754C20.1075 21.8754 20.1073 21.8754 20.1072 21.8754C20.1071 21.8754 20.107 21.8754 20.1068 21.8754C20.1067 21.8754 20.1066 21.8754 20.1065 21.8754C20.1063 21.8754 20.1062 21.8754 20.1061 21.8754C20.1059 21.8754 20.1058 21.8754 20.1057 21.8754C20.1056 21.8754 20.1054 21.8754 20.1053 21.8754C20.1052 21.8754 20.1051 21.8754 20.1049 21.8754C20.1048 21.8754 20.1047 21.8754 20.1045 21.8754C20.1044 21.8754 20.1043 21.8754 20.1042 21.8754C20.104 21.8754 20.1039 21.8754 20.1038 21.8754C20.1037 21.8754 20.1035 21.8754 20.1034 21.8754C20.1033 21.8754 20.1031 21.8754 20.103 21.8754C20.1029 21.8754 20.1028 21.8754 20.1026 21.8754C20.1025 21.8754 20.1024 21.8754 20.1022 21.8754C20.1021 21.8754 20.102 21.8754 20.1019 21.8754C20.1017 21.8754 20.1016 21.8754 20.1015 21.8754C20.1013 21.8754 20.1012 21.8754 20.1011 21.8754C20.1009 21.8754 20.1008 21.8754 20.1007 21.8754C20.1006 21.8754 20.1004 21.8754 20.1003 21.8754C20.1002 21.8754 20.1 21.8754 20.0999 21.8754C20.0998 21.8754 20.0996 21.8754 20.0995 21.8754C20.0994 21.8754 20.0992 21.8754 20.0991 21.8754C20.099 21.8754 20.0989 21.8754 20.0987 21.8754C20.0986 21.8754 20.0985 21.8754 20.0983 21.8754C20.0982 21.8754 20.0981 21.8754 20.0979 21.8754C20.0978 21.8754 20.0977 21.8754 20.0975 21.8754C20.0974 21.8754 20.0973 21.8754 20.0971 21.8754C20.097 21.8754 20.0969 21.8754 20.0967 21.8754C20.0966 21.8754 20.0965 21.8754 20.0963 21.8754C20.0962 21.8754 20.0961 21.8754 20.096 21.8754C20.0958 21.8754 20.0957 21.8754 20.0956 21.8754C20.0954 21.8754 20.0953 21.8754 20.0952 21.8754C20.095 21.8754 20.0949 21.8754 20.0947 21.8754C20.0946 21.8754 20.0945 21.8754 20.0943 21.8754C20.0942 21.8754 20.0941 21.8754 20.0939 21.8754C20.0938 21.8754 20.0937 21.8754 20.0935 21.8754C20.0934 21.8754 20.0933 21.8754 20.0931 21.8754C20.093 21.8754 20.0929 21.8754 20.0927 21.8754C20.0926 21.8754 20.0925 21.8754 20.0923 21.8754C20.0922 21.8754 20.092 21.8754 20.0919 21.8754C20.0918 21.8754 20.0916 21.8754 20.0915 21.8754C20.0914 21.8754 20.0912 21.8754 20.0911 21.8754C20.091 21.8754 20.0908 21.8754 20.0907 21.8754C20.0905 21.8754 20.0904 21.8754 20.0903 21.8754C20.0901 21.8754 20.09 21.8754 20.0899 21.8754C20.0897 21.8754 20.0896 21.8754 20.0894 21.8754C20.0893 21.8754 20.0892 21.8754 20.089 21.8754C20.0889 21.8754 20.0888 21.8754 20.0886 21.8754C20.0885 21.8754 20.0883 21.8754 20.0882 21.8754C20.0881 21.8754 20.0879 21.8754 20.0878 21.8754C20.0876 21.8754 20.0875 21.8754 20.0874 21.8754C20.0872 21.8754 20.0871 21.8754 20.0869 21.8754C20.0868 21.8754 20.0867 21.8754 20.0865 21.8754C20.0864 21.8754 20.0862 21.8754 20.0861 21.8754C20.086 21.8754 20.0858 21.8754 20.0857 21.8754C20.0855 21.8754 20.0854 21.8754 20.0852 21.8754C20.0851 21.8754 20.085 21.8754 20.0848 21.8754C20.0847 21.8754 20.0845 21.8754 20.0844 21.8754C20.0842 21.8754 20.0841 21.8754 20.084 21.8754C20.0838 21.8754 20.0837 21.8754 20.0835 21.8754C20.0834 21.8754 20.0832 21.8754 20.0831 21.8754C20.083 21.8754 20.0828 21.8754 20.0827 21.8754C20.0825 21.8754 20.0824 21.8754 20.0822 21.8754C20.0821 21.8754 20.0819 21.8754 20.0818 21.8754C20.0817 21.8754 20.0815 21.8754 20.0814 21.8754C20.0812 21.8754 20.0811 21.8754 20.0809 21.8754C20.0808 21.8754 20.0806 21.8754 20.0805 21.8754C20.0803 21.8754 20.0802 21.8754 20.0801 21.8754C20.0799 21.8754 20.0798 21.8754 20.0796 21.8754C20.0795 21.8754 20.0793 21.8754 20.0792 21.8754C20.079 21.8754 20.0789 21.8754 20.0787 21.8754C20.0786 21.8754 20.0784 21.8754 20.0783 21.8754C20.0781 21.8754 20.078 21.8754 20.0778 21.8754C20.0777 21.8754 20.0775 21.8754 20.0774 21.8754C20.0772 21.8754 20.0771 21.8754 20.0769 21.8754C20.0768 21.8754 20.0766 21.8754 20.0765 21.8754C20.0763 21.8754 20.0762 21.8754 20.076 21.8754C20.0759 21.8754 20.0757 21.8754 20.0756 21.8754C20.0754 21.8754 20.0753 21.8754 20.0751 21.8754C20.075 21.8754 20.0748 21.8754 20.0747 21.8754C20.0745 21.8754 20.0744 21.8754 20.0742 21.8754C20.0741 21.8754 20.0739 21.8754 20.0738 21.8754C20.0736 21.8754 20.0735 21.8754 20.0733 21.8754C20.0731 21.8754 20.073 21.8754 20.0728 21.8754C20.0727 21.8754 20.0725 21.8754 20.0724 21.8754C20.0722 21.8754 20.0721 21.8754 20.0719 21.8754C20.0718 21.8754 20.0716 21.8754 20.0714 21.8754C20.0713 21.8754 20.0711 21.8754 20.071 21.8754C20.0708 21.8754 20.0707 21.8754 20.0705 21.8754C20.0704 21.8754 20.0702 21.8754 20.07 21.8754C20.0699 21.8754 20.0697 21.8754 20.0696 21.8754C20.0694 21.8754 20.0693 21.8754 20.0691 21.8754C20.0689 21.8754 20.0688 21.8754 20.0686 21.8754C20.0685 21.8754 20.0683 21.8754 20.0681 21.8754C20.068 21.8754 20.0678 21.8754 20.0677 21.8754C20.0675 21.8754 20.0673 21.8754 20.0672 21.8754C20.067 21.8754 20.0669 21.8754 20.0667 21.8754C20.0665 21.8754 20.0664 21.8754 20.0662 21.8754C20.0661 21.8754 20.0659 21.8754 20.0657 21.8754C20.0656 21.8754 20.0654 21.8754 20.0653 21.8754C20.0651 21.8754 20.0649 21.8754 20.0648 21.8754C20.0646 21.8754 20.0644 21.8754 20.0643 21.8754C20.0641 21.8754 20.0639 21.8754 20.0638 21.8754C20.0636 21.8754 20.0635 21.8754 20.0633 21.8754C20.0631 21.8754 20.063 21.8754 20.0628 21.8754C20.0626 21.8754 20.0625 21.8754 20.0623 21.8754C20.0621 21.8754 20.062 21.8754 20.0618 21.8754C20.0616 21.8754 20.0615 21.8754 20.0613 21.8754C20.0611 21.8754 20.061 21.8754 20.0608 21.8754C20.0606 21.8754 20.0605 21.8754 20.0603 21.8754C20.0601 21.8754 20.06 21.8754 20.0598 21.8754C20.0596 21.8754 20.0595 21.8754 20.0593 21.8754C20.0591 21.8754 20.0589 21.8754 20.0588 21.8754C20.0586 21.8754 20.0584 21.8754 20.0583 21.8754C20.0581 21.8754 20.0579 21.8754 20.0578 21.8754C20.0576 21.8754 20.0574 21.8754 20.0572 21.8754C20.0571 21.8754 20.0569 21.8754 20.0567 21.8754C20.0566 21.8754 20.0564 21.8754 20.0562 21.8754C20.056 21.8754 20.0559 21.8754 20.0557 21.8754C20.0555 21.8754 20.0553 21.8754 20.0552 21.8754C20.055 21.8754 20.0548 21.8754 20.0546 21.8754C20.0545 21.8754 20.0543 21.8754 20.0541 21.8754C20.0539 21.8754 20.0538 21.8754 20.0536 21.8754C20.0534 21.8754 20.0532 21.8754 20.0531 21.8754C20.0529 21.8754 20.0527 21.8754 20.0525 21.8754C20.0524 21.8754 20.0522 21.8754 20.052 21.8754C20.0518 21.8754 20.0516 21.8754 20.0515 21.8754C20.0513 21.8754 20.0511 21.8754 20.0509 21.8754C20.0508 21.8754 20.0506 21.8754 20.0504 21.8754C20.0502 21.8754 20.05 21.8754 20.0499 21.8754C20.0497 21.8754 20.0495 21.8754 20.0493 21.8754C20.0491 21.8754 20.0489 21.8754 20.0488 21.8754C20.0486 21.8754 20.0484 21.8754 20.0482 21.8754C20.048 21.8754 20.0479 21.8754 20.0477 21.8754C20.0475 21.8754 20.0473 21.8754 20.0471 21.8754C20.0469 21.8754 20.0468 21.8754 20.0466 21.8754C20.0464 21.8754 20.0462 21.8754 20.046 21.8754C20.0458 21.8754 20.0456 21.8754 20.0455 21.8754C20.0453 21.8754 20.0451 21.8754 20.0449 21.8754C20.0447 21.8754 20.0445 21.8754 20.0443 21.8754C20.0442 21.8754 20.044 21.8754 20.0438 21.8754C20.0436 21.8754 20.0434 21.8754 20.0432 21.8754C20.043 21.8754 20.0428 21.8754 20.0426 21.8754C20.0425 21.8754 20.0423 21.8754 20.0421 21.8754C20.0419 21.8754 20.0417 21.8754 20.0415 21.8754C20.0413 21.8754 20.0411 21.8754 20.0409 21.8754C20.0407 21.8754 20.0405 21.8754 20.0404 21.8754C20.0402 21.8754 20.04 21.8754 20.0398 21.8754C20.0396 21.8754 20.0394 21.8754 20.0392 21.8754C20.039 21.8754 20.0388 21.8754 20.0386 21.8754C20.0384 21.8754 20.0382 21.8754 20.038 21.8754C20.0378 21.8754 20.0376 21.8754 20.0374 21.8754C20.0372 21.8754 20.0371 21.8754 20.0369 21.8754C20.0367 21.8754 20.0365 21.8754 20.0363 21.8754C20.0361 21.8754 20.0359 21.8754 20.0357 21.8754C20.0355 21.8754 20.0353 21.8754 20.0351 21.8754C20.0349 21.8754 20.0347 21.8754 20.0345 21.8754C20.0343 21.8754 20.0341 21.8754 20.0339 21.8754C20.0337 21.8754 20.0335 21.8754 20.0333 21.8754C20.0331 21.8754 20.0329 21.8754 20.0327 21.8754C20.0325 21.8754 20.0323 21.8754 20.0321 21.8754C20.0319 21.8754 20.0317 21.8754 20.0315 21.8754C20.0313 21.8754 20.031 21.8754 20.0308 21.8754C20.0306 21.8754 20.0304 21.8754 20.0302 21.8754C20.03 21.8754 20.0298 21.8754 20.0296 21.8754C20.0294 21.8754 20.0292 21.8754 20.029 21.8754C20.0288 21.8754 20.0286 21.8754 20.0284 21.8754C20.0282 21.8754 20.028 21.8754 20.0278 21.8754C20.0275 21.8754 20.0273 21.8754 20.0271 21.8754C20.0269 21.8754 20.0267 21.8754 20.0265 21.8754C20.0263 21.8754 20.0261 21.8754 20.0259 21.8754C20.0257 21.8754 20.0254 21.8754 20.0252 21.8754C20.025 21.8754 20.0248 21.8754 20.0246 21.8754C20.0244 21.8754 20.0242 21.8754 20.024 21.8754C20.0237 21.8754 20.0235 21.8754 20.0233 21.8754C20.0231 21.8754 20.0229 21.8754 20.0227 21.8754C20.0225 21.8754 20.0222 21.8754 20.022 21.8754C20.0218 21.8754 20.0216 21.8754 20.0214 21.8754C20.0212 21.8754 20.021 21.8754 20.0207 21.8754C20.0205 21.8754 20.0203 21.8754 20.0201 21.8754C20.0199 21.8754 20.0196 21.8754 20.0194 21.8754C20.0192 21.8754 20.019 21.8754 20.0188 21.8754C20.0185 21.8754 20.0183 21.8754 20.0181 21.8754C20.0179 21.8754 20.0177 21.8754 20.0174 21.8754C20.0172 21.8754 20.017 21.8754 20.0168 21.8754C20.0166 21.8754 20.0163 21.8754 20.0161 21.8754C20.0159 21.8754 20.0157 21.8754 20.0154 21.8754C20.0152 21.8754 20.015 21.8754 20.0148 21.8754C20.0145 21.8754 20.0143 21.8754 20.0141 21.8754C20.0139 21.8754 20.0136 21.8754 20.0134 21.8754C20.0132 21.8754 20.013 21.8754 20.0127 21.8754C20.0125 21.8754 20.0123 21.8754 20.012 21.8754C20.0118 21.8754 20.0116 21.8754 20.0114 21.8754C20.0111 21.8754 20.0109 21.8754 20.0107 21.8754C20.0104 21.8754 20.0102 21.8754 20.01 21.8754C20.0097 21.8754 20.0095 21.8754 20.0093 21.8754C20.0091 21.8754 20.0088 21.8754 20.0086 21.8754C20.0084 21.8754 20.0081 21.8754 20.0079 21.8754C20.0077 21.8754 20.0074 21.8754 20.0072 21.8754C20.0069 21.8754 20.0067 21.8754 20.0065 21.8754C20.0062 21.8754 20.006 21.8754 20.0058 21.8754C20.0055 21.8754 20.0053 21.8754 20.0051 21.8754C20.0048 21.8754 20.0046 21.8754 20.0043 21.8754C20.0041 21.8754 20.0039 21.8754 20.0036 21.8754C20.0034 21.8754 20.0031 21.8754 20.0029 21.8754C20.0027 21.8754 20.0024 21.8754 20.0022 21.8754C20.0019 21.8754 20.0017 21.8754 20.0015 21.8754C20.0012 21.8754 20.001 21.8754 20.0007 21.8754C20.0005 21.8754 20.0002 21.8754 20 21.8754V25.8754ZM20.6422 25.8366C22.2872 25.5076 23.5316 23.8998 23.2228 22.0466L19.2772 22.7042C19.2184 22.3511 19.4628 21.9932 19.8578 21.9143L20.6422 25.8366ZM23.2199 22.0298L21.9699 14.9048L18.0301 15.596L19.2801 22.721L23.2199 22.0298ZM21.3966 16.682L26.5216 11.682L23.7284 8.81885L18.6034 13.8188L21.3966 16.682ZM26.0194 12.0393C27.0408 11.5286 27.5 10.522 27.5 9.62541H23.5C23.5 9.22878 23.7092 8.72225 24.2306 8.46156L26.0194 12.0393Z" fill="url(#paint1_linear_243_10248)" mask="url(#path-1-inside-1_243_10248)"/>
<defs>
<linearGradient id="paint0_linear_243_10248" x1="13.0096" y1="0.0742187" x2="13.0096" y2="23.9266" gradientUnits="userSpaceOnUse">
<stop stop-color="#3FBEB0"/>
<stop offset="1" stop-color="#B2F49E"/>
</linearGradient>
<linearGradient id="paint1_linear_243_10248" x1="13.0096" y1="0.0742187" x2="13.0096" y2="23.9266" gradientUnits="userSpaceOnUse">
<stop stop-color="#3FBEB0"/>
<stop offset="1" stop-color="#B2F49E"/>
</linearGradient>
</defs>
</svg>
