<svg width="26" height="24" viewBox="0 0 26 24" fill="none" xmlns="http://www.w3.org/2000/svg">
<mask id="path-1-inside-1_347_4958" fill="white">
<path d="M25 9.62541C25.125 9.00041 24.625 8.25041 24 8.25041L16.875 7.25041L13.625 0.750411C13.5 0.500411 13.375 0.375411 13.125 0.250411C12.5 -0.124589 11.75 0.125411 11.375 0.750411L8.25 7.25041L1.125 8.25041C0.75 8.25041 0.5 8.37541 0.375 8.62541C-0.125 9.12541 -0.125 9.87541 0.375 10.3754L5.5 15.3754L4.25 22.5004C4.25 22.7504 4.25 23.0004 4.375 23.2504C4.75 23.8754 5.5 24.1254 6.125 23.7504L12.5 20.3754L18.875 23.7504C19 23.8754 19.25 23.8754 19.5 23.8754C19.625 23.8754 19.625 23.8754 19.75 23.8754C20.375 23.7504 20.875 23.1254 20.75 22.3754L19.5 15.2504L24.625 10.2504C24.875 10.1254 25 9.87541 25 9.62541Z"/>
</mask>
<path d="M25 9.62541L23.0388 9.23318L23 9.42737V9.62541H25ZM24 8.25041L23.722 10.231L23.8603 10.2504H24V8.25041ZM16.875 7.25041L15.0861 8.14484L15.5562 9.08492L16.597 9.231L16.875 7.25041ZM13.625 0.750411L11.8361 1.64484L11.8361 1.64484L13.625 0.750411ZM13.125 0.250411L12.096 1.9654L12.1619 2.00492L12.2306 2.03927L13.125 0.250411ZM11.375 0.750411L9.66001 -0.27858L9.61251 -0.199399L9.5725 -0.116178L11.375 0.750411ZM8.25 7.25041L8.52798 9.231L9.58849 9.08216L10.0525 8.117L8.25 7.25041ZM1.125 8.25041V10.2504H1.26467L1.40298 10.231L1.125 8.25041ZM0.375 8.62541L1.78921 10.0396L2.01871 9.81013L2.16385 9.51984L0.375 8.62541ZM0.375 10.3754L-1.03921 11.7896L-1.03048 11.7984L-1.02165 11.807L0.375 10.3754ZM5.5 15.3754L7.46991 15.721L7.65235 14.6811L6.89665 13.9438L5.5 15.3754ZM4.25 22.5004L2.28009 22.1548L2.25 22.3263V22.5004H4.25ZM4.375 23.2504L2.58615 24.1448L2.6205 24.2135L2.66001 24.2794L4.375 23.2504ZM6.125 23.7504L5.18922 21.9828L5.14191 22.0079L5.09601 22.0354L6.125 23.7504ZM12.5 20.3754L13.4358 18.6078L12.5 18.1124L11.5642 18.6078L12.5 20.3754ZM18.875 23.7504L20.2892 22.3362L20.0766 22.1235L19.8108 21.9828L18.875 23.7504ZM19.75 23.8754V25.8754H19.948L20.1422 25.8366L19.75 23.8754ZM20.75 22.3754L22.7228 22.0466L22.7214 22.0382L22.7199 22.0298L20.75 22.3754ZM19.5 15.2504L18.1034 13.8188L17.3476 14.5561L17.5301 15.596L19.5 15.2504ZM24.625 10.2504L23.7306 8.46156L23.4516 8.60104L23.2284 8.81885L24.625 10.2504ZM26.9612 10.0176C27.1496 9.07541 26.8611 8.1819 26.4152 7.55017C25.9715 6.92168 25.1439 6.25041 24 6.25041V10.2504C23.4811 10.2504 23.216 9.95415 23.1473 9.8569C23.0764 9.75643 22.9754 9.55041 23.0388 9.23318L26.9612 10.0176ZM24.278 6.26982L17.153 5.26982L16.597 9.231L23.722 10.231L24.278 6.26982ZM18.6639 6.35598L15.4139 -0.144016L11.8361 1.64484L15.0861 8.14484L18.6639 6.35598ZM15.4139 -0.144016C15.291 -0.389648 15.114 -0.682717 14.8361 -0.960676C14.5581 -1.23864 14.2651 -1.41563 14.0194 -1.53844L12.2306 2.03927C12.2349 2.04145 12.1294 1.98946 12.0077 1.86775C11.886 1.74604 11.834 1.64047 11.8361 1.64484L15.4139 -0.144016ZM14.154 -1.46457C12.4351 -2.49592 10.5111 -1.697 9.66001 -0.27858L13.09 1.7794C13.0364 1.86878 12.9234 1.98334 12.7309 2.04106C12.5213 2.10396 12.2809 2.07634 12.096 1.9654L14.154 -1.46457ZM9.5725 -0.116178L6.4475 6.38382L10.0525 8.117L13.1775 1.617L9.5725 -0.116178ZM7.97202 5.26982L0.847023 6.26982L1.40298 10.231L8.52798 9.231L7.97202 5.26982ZM1.125 6.25041C0.294478 6.25041 -0.833334 6.56994 -1.41385 7.73098L2.16385 9.51984C2.03283 9.78189 1.81273 10.002 1.55068 10.133C1.31976 10.2485 1.1468 10.2504 1.125 10.2504V6.25041ZM-1.03921 7.2112C-2.32026 8.49225 -2.32026 10.5086 -1.03921 11.7896L1.78921 8.9612C1.90232 9.0743 2 9.26579 2 9.50041C2 9.73504 1.90232 9.92652 1.78921 10.0396L-1.03921 7.2112ZM-1.02165 11.807L4.10335 16.807L6.89665 13.9438L1.77165 8.94385L-1.02165 11.807ZM3.53009 15.0298L2.28009 22.1548L6.21991 22.846L7.46991 15.721L3.53009 15.0298ZM2.25 22.5004C2.25 22.7 2.2208 23.4142 2.58615 24.1448L6.16385 22.356C6.19303 22.4143 6.21383 22.4709 6.22804 22.5214C6.24193 22.5708 6.2478 22.6083 6.25018 22.6273C6.25238 22.6449 6.25168 22.6478 6.25098 22.6254C6.25016 22.5994 6.25 22.5681 6.25 22.5004H2.25ZM2.66001 24.2794C3.51107 25.6978 5.43508 26.4967 7.15399 25.4654L5.09601 22.0354C5.28091 21.9245 5.5213 21.8969 5.73095 21.9598C5.92337 22.0175 6.03636 22.132 6.08999 22.2214L2.66001 24.2794ZM7.06078 25.518L13.4358 22.143L11.5642 18.6078L5.18922 21.9828L7.06078 25.518ZM11.5642 22.143L17.9392 25.518L19.8108 21.9828L13.4358 18.6078L11.5642 22.143ZM17.4608 25.1646C17.9847 25.6886 18.6062 25.8037 18.8578 25.8397C19.1354 25.8793 19.412 25.8754 19.5 25.8754V21.8754C19.4314 21.8754 19.4016 21.8752 19.3789 21.8745C19.3573 21.8738 19.3784 21.8734 19.4235 21.8799C19.4658 21.8859 19.576 21.9042 19.719 21.9602C19.8666 22.018 20.0818 22.1287 20.2892 22.3362L17.4608 25.1646ZM19.5 25.8754C19.5002 25.8754 19.5005 25.8754 19.5007 25.8754C19.501 25.8754 19.5012 25.8754 19.5015 25.8754C19.5017 25.8754 19.5019 25.8754 19.5022 25.8754C19.5024 25.8754 19.5027 25.8754 19.5029 25.8754C19.5031 25.8754 19.5034 25.8754 19.5036 25.8754C19.5039 25.8754 19.5041 25.8754 19.5043 25.8754C19.5046 25.8754 19.5048 25.8754 19.5051 25.8754C19.5053 25.8754 19.5055 25.8754 19.5058 25.8754C19.506 25.8754 19.5062 25.8754 19.5065 25.8754C19.5067 25.8754 19.5069 25.8754 19.5072 25.8754C19.5074 25.8754 19.5077 25.8754 19.5079 25.8754C19.5081 25.8754 19.5084 25.8754 19.5086 25.8754C19.5088 25.8754 19.5091 25.8754 19.5093 25.8754C19.5095 25.8754 19.5097 25.8754 19.51 25.8754C19.5102 25.8754 19.5104 25.8754 19.5107 25.8754C19.5109 25.8754 19.5111 25.8754 19.5114 25.8754C19.5116 25.8754 19.5118 25.8754 19.512 25.8754C19.5123 25.8754 19.5125 25.8754 19.5127 25.8754C19.513 25.8754 19.5132 25.8754 19.5134 25.8754C19.5136 25.8754 19.5139 25.8754 19.5141 25.8754C19.5143 25.8754 19.5145 25.8754 19.5148 25.8754C19.515 25.8754 19.5152 25.8754 19.5154 25.8754C19.5157 25.8754 19.5159 25.8754 19.5161 25.8754C19.5163 25.8754 19.5166 25.8754 19.5168 25.8754C19.517 25.8754 19.5172 25.8754 19.5174 25.8754C19.5177 25.8754 19.5179 25.8754 19.5181 25.8754C19.5183 25.8754 19.5185 25.8754 19.5188 25.8754C19.519 25.8754 19.5192 25.8754 19.5194 25.8754C19.5196 25.8754 19.5199 25.8754 19.5201 25.8754C19.5203 25.8754 19.5205 25.8754 19.5207 25.8754C19.521 25.8754 19.5212 25.8754 19.5214 25.8754C19.5216 25.8754 19.5218 25.8754 19.522 25.8754C19.5222 25.8754 19.5225 25.8754 19.5227 25.8754C19.5229 25.8754 19.5231 25.8754 19.5233 25.8754C19.5235 25.8754 19.5237 25.8754 19.524 25.8754C19.5242 25.8754 19.5244 25.8754 19.5246 25.8754C19.5248 25.8754 19.525 25.8754 19.5252 25.8754C19.5254 25.8754 19.5257 25.8754 19.5259 25.8754C19.5261 25.8754 19.5263 25.8754 19.5265 25.8754C19.5267 25.8754 19.5269 25.8754 19.5271 25.8754C19.5273 25.8754 19.5275 25.8754 19.5278 25.8754C19.528 25.8754 19.5282 25.8754 19.5284 25.8754C19.5286 25.8754 19.5288 25.8754 19.529 25.8754C19.5292 25.8754 19.5294 25.8754 19.5296 25.8754C19.5298 25.8754 19.53 25.8754 19.5302 25.8754C19.5304 25.8754 19.5306 25.8754 19.5308 25.8754C19.5311 25.8754 19.5313 25.8754 19.5315 25.8754C19.5317 25.8754 19.5319 25.8754 19.5321 25.8754C19.5323 25.8754 19.5325 25.8754 19.5327 25.8754C19.5329 25.8754 19.5331 25.8754 19.5333 25.8754C19.5335 25.8754 19.5337 25.8754 19.5339 25.8754C19.5341 25.8754 19.5343 25.8754 19.5345 25.8754C19.5347 25.8754 19.5349 25.8754 19.5351 25.8754C19.5353 25.8754 19.5355 25.8754 19.5357 25.8754C19.5359 25.8754 19.5361 25.8754 19.5363 25.8754C19.5365 25.8754 19.5367 25.8754 19.5369 25.8754C19.5371 25.8754 19.5372 25.8754 19.5374 25.8754C19.5376 25.8754 19.5378 25.8754 19.538 25.8754C19.5382 25.8754 19.5384 25.8754 19.5386 25.8754C19.5388 25.8754 19.539 25.8754 19.5392 25.8754C19.5394 25.8754 19.5396 25.8754 19.5398 25.8754C19.54 25.8754 19.5402 25.8754 19.5404 25.8754C19.5405 25.8754 19.5407 25.8754 19.5409 25.8754C19.5411 25.8754 19.5413 25.8754 19.5415 25.8754C19.5417 25.8754 19.5419 25.8754 19.5421 25.8754C19.5423 25.8754 19.5425 25.8754 19.5426 25.8754C19.5428 25.8754 19.543 25.8754 19.5432 25.8754C19.5434 25.8754 19.5436 25.8754 19.5438 25.8754C19.544 25.8754 19.5442 25.8754 19.5443 25.8754C19.5445 25.8754 19.5447 25.8754 19.5449 25.8754C19.5451 25.8754 19.5453 25.8754 19.5455 25.8754C19.5456 25.8754 19.5458 25.8754 19.546 25.8754C19.5462 25.8754 19.5464 25.8754 19.5466 25.8754C19.5468 25.8754 19.5469 25.8754 19.5471 25.8754C19.5473 25.8754 19.5475 25.8754 19.5477 25.8754C19.5479 25.8754 19.548 25.8754 19.5482 25.8754C19.5484 25.8754 19.5486 25.8754 19.5488 25.8754C19.5489 25.8754 19.5491 25.8754 19.5493 25.8754C19.5495 25.8754 19.5497 25.8754 19.5499 25.8754C19.55 25.8754 19.5502 25.8754 19.5504 25.8754C19.5506 25.8754 19.5508 25.8754 19.5509 25.8754C19.5511 25.8754 19.5513 25.8754 19.5515 25.8754C19.5516 25.8754 19.5518 25.8754 19.552 25.8754C19.5522 25.8754 19.5524 25.8754 19.5525 25.8754C19.5527 25.8754 19.5529 25.8754 19.5531 25.8754C19.5532 25.8754 19.5534 25.8754 19.5536 25.8754C19.5538 25.8754 19.5539 25.8754 19.5541 25.8754C19.5543 25.8754 19.5545 25.8754 19.5546 25.8754C19.5548 25.8754 19.555 25.8754 19.5552 25.8754C19.5553 25.8754 19.5555 25.8754 19.5557 25.8754C19.5559 25.8754 19.556 25.8754 19.5562 25.8754C19.5564 25.8754 19.5566 25.8754 19.5567 25.8754C19.5569 25.8754 19.5571 25.8754 19.5572 25.8754C19.5574 25.8754 19.5576 25.8754 19.5578 25.8754C19.5579 25.8754 19.5581 25.8754 19.5583 25.8754C19.5584 25.8754 19.5586 25.8754 19.5588 25.8754C19.5589 25.8754 19.5591 25.8754 19.5593 25.8754C19.5595 25.8754 19.5596 25.8754 19.5598 25.8754C19.56 25.8754 19.5601 25.8754 19.5603 25.8754C19.5605 25.8754 19.5606 25.8754 19.5608 25.8754C19.561 25.8754 19.5611 25.8754 19.5613 25.8754C19.5615 25.8754 19.5616 25.8754 19.5618 25.8754C19.562 25.8754 19.5621 25.8754 19.5623 25.8754C19.5625 25.8754 19.5626 25.8754 19.5628 25.8754C19.563 25.8754 19.5631 25.8754 19.5633 25.8754C19.5635 25.8754 19.5636 25.8754 19.5638 25.8754C19.5639 25.8754 19.5641 25.8754 19.5643 25.8754C19.5644 25.8754 19.5646 25.8754 19.5648 25.8754C19.5649 25.8754 19.5651 25.8754 19.5653 25.8754C19.5654 25.8754 19.5656 25.8754 19.5657 25.8754C19.5659 25.8754 19.5661 25.8754 19.5662 25.8754C19.5664 25.8754 19.5665 25.8754 19.5667 25.8754C19.5669 25.8754 19.567 25.8754 19.5672 25.8754C19.5673 25.8754 19.5675 25.8754 19.5677 25.8754C19.5678 25.8754 19.568 25.8754 19.5681 25.8754C19.5683 25.8754 19.5685 25.8754 19.5686 25.8754C19.5688 25.8754 19.5689 25.8754 19.5691 25.8754C19.5693 25.8754 19.5694 25.8754 19.5696 25.8754C19.5697 25.8754 19.5699 25.8754 19.57 25.8754C19.5702 25.8754 19.5704 25.8754 19.5705 25.8754C19.5707 25.8754 19.5708 25.8754 19.571 25.8754C19.5711 25.8754 19.5713 25.8754 19.5714 25.8754C19.5716 25.8754 19.5718 25.8754 19.5719 25.8754C19.5721 25.8754 19.5722 25.8754 19.5724 25.8754C19.5725 25.8754 19.5727 25.8754 19.5728 25.8754C19.573 25.8754 19.5731 25.8754 19.5733 25.8754C19.5735 25.8754 19.5736 25.8754 19.5738 25.8754C19.5739 25.8754 19.5741 25.8754 19.5742 25.8754C19.5744 25.8754 19.5745 25.8754 19.5747 25.8754C19.5748 25.8754 19.575 25.8754 19.5751 25.8754C19.5753 25.8754 19.5754 25.8754 19.5756 25.8754C19.5757 25.8754 19.5759 25.8754 19.576 25.8754C19.5762 25.8754 19.5763 25.8754 19.5765 25.8754C19.5766 25.8754 19.5768 25.8754 19.5769 25.8754C19.5771 25.8754 19.5772 25.8754 19.5774 25.8754C19.5775 25.8754 19.5777 25.8754 19.5778 25.8754C19.578 25.8754 19.5781 25.8754 19.5783 25.8754C19.5784 25.8754 19.5786 25.8754 19.5787 25.8754C19.5789 25.8754 19.579 25.8754 19.5792 25.8754C19.5793 25.8754 19.5795 25.8754 19.5796 25.8754C19.5798 25.8754 19.5799 25.8754 19.5801 25.8754C19.5802 25.8754 19.5803 25.8754 19.5805 25.8754C19.5806 25.8754 19.5808 25.8754 19.5809 25.8754C19.5811 25.8754 19.5812 25.8754 19.5814 25.8754C19.5815 25.8754 19.5817 25.8754 19.5818 25.8754C19.5819 25.8754 19.5821 25.8754 19.5822 25.8754C19.5824 25.8754 19.5825 25.8754 19.5827 25.8754C19.5828 25.8754 19.583 25.8754 19.5831 25.8754C19.5832 25.8754 19.5834 25.8754 19.5835 25.8754C19.5837 25.8754 19.5838 25.8754 19.584 25.8754C19.5841 25.8754 19.5842 25.8754 19.5844 25.8754C19.5845 25.8754 19.5847 25.8754 19.5848 25.8754C19.585 25.8754 19.5851 25.8754 19.5852 25.8754C19.5854 25.8754 19.5855 25.8754 19.5857 25.8754C19.5858 25.8754 19.586 25.8754 19.5861 25.8754C19.5862 25.8754 19.5864 25.8754 19.5865 25.8754C19.5867 25.8754 19.5868 25.8754 19.5869 25.8754C19.5871 25.8754 19.5872 25.8754 19.5874 25.8754C19.5875 25.8754 19.5876 25.8754 19.5878 25.8754C19.5879 25.8754 19.5881 25.8754 19.5882 25.8754C19.5883 25.8754 19.5885 25.8754 19.5886 25.8754C19.5888 25.8754 19.5889 25.8754 19.589 25.8754C19.5892 25.8754 19.5893 25.8754 19.5894 25.8754C19.5896 25.8754 19.5897 25.8754 19.5899 25.8754C19.59 25.8754 19.5901 25.8754 19.5903 25.8754C19.5904 25.8754 19.5905 25.8754 19.5907 25.8754C19.5908 25.8754 19.591 25.8754 19.5911 25.8754C19.5912 25.8754 19.5914 25.8754 19.5915 25.8754C19.5916 25.8754 19.5918 25.8754 19.5919 25.8754C19.592 25.8754 19.5922 25.8754 19.5923 25.8754C19.5925 25.8754 19.5926 25.8754 19.5927 25.8754C19.5929 25.8754 19.593 25.8754 19.5931 25.8754C19.5933 25.8754 19.5934 25.8754 19.5935 25.8754C19.5937 25.8754 19.5938 25.8754 19.5939 25.8754C19.5941 25.8754 19.5942 25.8754 19.5943 25.8754C19.5945 25.8754 19.5946 25.8754 19.5947 25.8754C19.5949 25.8754 19.595 25.8754 19.5952 25.8754C19.5953 25.8754 19.5954 25.8754 19.5956 25.8754C19.5957 25.8754 19.5958 25.8754 19.596 25.8754C19.5961 25.8754 19.5962 25.8754 19.5964 25.8754C19.5965 25.8754 19.5966 25.8754 19.5967 25.8754C19.5969 25.8754 19.597 25.8754 19.5971 25.8754C19.5973 25.8754 19.5974 25.8754 19.5975 25.8754C19.5977 25.8754 19.5978 25.8754 19.5979 25.8754C19.5981 25.8754 19.5982 25.8754 19.5983 25.8754C19.5985 25.8754 19.5986 25.8754 19.5987 25.8754C19.5989 25.8754 19.599 25.8754 19.5991 25.8754C19.5993 25.8754 19.5994 25.8754 19.5995 25.8754C19.5996 25.8754 19.5998 25.8754 19.5999 25.8754C19.6 25.8754 19.6002 25.8754 19.6003 25.8754C19.6004 25.8754 19.6006 25.8754 19.6007 25.8754C19.6008 25.8754 19.6009 25.8754 19.6011 25.8754C19.6012 25.8754 19.6013 25.8754 19.6015 25.8754C19.6016 25.8754 19.6017 25.8754 19.6019 25.8754C19.602 25.8754 19.6021 25.8754 19.6022 25.8754C19.6024 25.8754 19.6025 25.8754 19.6026 25.8754C19.6028 25.8754 19.6029 25.8754 19.603 25.8754C19.6031 25.8754 19.6033 25.8754 19.6034 25.8754C19.6035 25.8754 19.6037 25.8754 19.6038 25.8754C19.6039 25.8754 19.604 25.8754 19.6042 25.8754C19.6043 25.8754 19.6044 25.8754 19.6045 25.8754C19.6047 25.8754 19.6048 25.8754 19.6049 25.8754C19.6051 25.8754 19.6052 25.8754 19.6053 25.8754C19.6054 25.8754 19.6056 25.8754 19.6057 25.8754C19.6058 25.8754 19.6059 25.8754 19.6061 25.8754C19.6062 25.8754 19.6063 25.8754 19.6065 25.8754C19.6066 25.8754 19.6067 25.8754 19.6068 25.8754C19.607 25.8754 19.6071 25.8754 19.6072 25.8754C19.6073 25.8754 19.6075 25.8754 19.6076 25.8754C19.6077 25.8754 19.6078 25.8754 19.608 25.8754C19.6081 25.8754 19.6082 25.8754 19.6084 25.8754C19.6085 25.8754 19.6086 25.8754 19.6087 25.8754C19.6089 25.8754 19.609 25.8754 19.6091 25.8754C19.6092 25.8754 19.6094 25.8754 19.6095 25.8754C19.6096 25.8754 19.6097 25.8754 19.6099 25.8754C19.61 25.8754 19.6101 25.8754 19.6102 25.8754C19.6104 25.8754 19.6105 25.8754 19.6106 25.8754C19.6107 25.8754 19.6109 25.8754 19.611 25.8754C19.6111 25.8754 19.6112 25.8754 19.6114 25.8754C19.6115 25.8754 19.6116 25.8754 19.6117 25.8754C19.6119 25.8754 19.612 25.8754 19.6121 25.8754C19.6122 25.8754 19.6124 25.8754 19.6125 25.8754C19.6126 25.8754 19.6127 25.8754 19.6128 25.8754C19.613 25.8754 19.6131 25.8754 19.6132 25.8754C19.6133 25.8754 19.6135 25.8754 19.6136 25.8754C19.6137 25.8754 19.6138 25.8754 19.614 25.8754C19.6141 25.8754 19.6142 25.8754 19.6143 25.8754C19.6145 25.8754 19.6146 25.8754 19.6147 25.8754C19.6148 25.8754 19.615 25.8754 19.6151 25.8754C19.6152 25.8754 19.6153 25.8754 19.6154 25.8754C19.6156 25.8754 19.6157 25.8754 19.6158 25.8754C19.6159 25.8754 19.6161 25.8754 19.6162 25.8754C19.6163 25.8754 19.6164 25.8754 19.6166 25.8754C19.6167 25.8754 19.6168 25.8754 19.6169 25.8754C19.617 25.8754 19.6172 25.8754 19.6173 25.8754C19.6174 25.8754 19.6175 25.8754 19.6177 25.8754C19.6178 25.8754 19.6179 25.8754 19.618 25.8754C19.6182 25.8754 19.6183 25.8754 19.6184 25.8754C19.6185 25.8754 19.6186 25.8754 19.6188 25.8754C19.6189 25.8754 19.619 25.8754 19.6191 25.8754C19.6193 25.8754 19.6194 25.8754 19.6195 25.8754C19.6196 25.8754 19.6197 25.8754 19.6199 25.8754C19.62 25.8754 19.6201 25.8754 19.6202 25.8754C19.6204 25.8754 19.6205 25.8754 19.6206 25.8754C19.6207 25.8754 19.6208 25.8754 19.621 25.8754C19.6211 25.8754 19.6212 25.8754 19.6213 25.8754C19.6215 25.8754 19.6216 25.8754 19.6217 25.8754C19.6218 25.8754 19.6219 25.8754 19.6221 25.8754C19.6222 25.8754 19.6223 25.8754 19.6224 25.8754C19.6226 25.8754 19.6227 25.8754 19.6228 25.8754C19.6229 25.8754 19.623 25.8754 19.6232 25.8754C19.6233 25.8754 19.6234 25.8754 19.6235 25.8754C19.6237 25.8754 19.6238 25.8754 19.6239 25.8754C19.624 25.8754 19.6241 25.8754 19.6243 25.8754C19.6244 25.8754 19.6245 25.8754 19.6246 25.8754C19.6248 25.8754 19.6249 25.8754 19.625 25.8754C19.6251 25.8754 19.6252 25.8754 19.6254 25.8754C19.6255 25.8754 19.6256 25.8754 19.6257 25.8754C19.6259 25.8754 19.626 25.8754 19.6261 25.8754C19.6262 25.8754 19.6263 25.8754 19.6265 25.8754C19.6266 25.8754 19.6267 25.8754 19.6268 25.8754C19.627 25.8754 19.6271 25.8754 19.6272 25.8754C19.6273 25.8754 19.6274 25.8754 19.6276 25.8754C19.6277 25.8754 19.6278 25.8754 19.6279 25.8754C19.6281 25.8754 19.6282 25.8754 19.6283 25.8754C19.6284 25.8754 19.6285 25.8754 19.6287 25.8754C19.6288 25.8754 19.6289 25.8754 19.629 25.8754C19.6292 25.8754 19.6293 25.8754 19.6294 25.8754C19.6295 25.8754 19.6296 25.8754 19.6298 25.8754C19.6299 25.8754 19.63 25.8754 19.6301 25.8754C19.6303 25.8754 19.6304 25.8754 19.6305 25.8754C19.6306 25.8754 19.6307 25.8754 19.6309 25.8754C19.631 25.8754 19.6311 25.8754 19.6312 25.8754C19.6314 25.8754 19.6315 25.8754 19.6316 25.8754C19.6317 25.8754 19.6318 25.8754 19.632 25.8754C19.6321 25.8754 19.6322 25.8754 19.6323 25.8754C19.6325 25.8754 19.6326 25.8754 19.6327 25.8754C19.6328 25.8754 19.633 25.8754 19.6331 25.8754C19.6332 25.8754 19.6333 25.8754 19.6334 25.8754C19.6336 25.8754 19.6337 25.8754 19.6338 25.8754C19.6339 25.8754 19.6341 25.8754 19.6342 25.8754C19.6343 25.8754 19.6344 25.8754 19.6346 25.8754C19.6347 25.8754 19.6348 25.8754 19.6349 25.8754C19.635 25.8754 19.6352 25.8754 19.6353 25.8754C19.6354 25.8754 19.6355 25.8754 19.6357 25.8754C19.6358 25.8754 19.6359 25.8754 19.636 25.8754C19.6362 25.8754 19.6363 25.8754 19.6364 25.8754C19.6365 25.8754 19.6367 25.8754 19.6368 25.8754C19.6369 25.8754 19.637 25.8754 19.6372 25.8754C19.6373 25.8754 19.6374 25.8754 19.6375 25.8754C19.6376 25.8754 19.6378 25.8754 19.6379 25.8754C19.638 25.8754 19.6381 25.8754 19.6383 25.8754C19.6384 25.8754 19.6385 25.8754 19.6386 25.8754C19.6388 25.8754 19.6389 25.8754 19.639 25.8754C19.6391 25.8754 19.6393 25.8754 19.6394 25.8754C19.6395 25.8754 19.6396 25.8754 19.6398 25.8754C19.6399 25.8754 19.64 25.8754 19.6401 25.8754C19.6403 25.8754 19.6404 25.8754 19.6405 25.8754C19.6406 25.8754 19.6408 25.8754 19.6409 25.8754C19.641 25.8754 19.6411 25.8754 19.6413 25.8754C19.6414 25.8754 19.6415 25.8754 19.6416 25.8754C19.6418 25.8754 19.6419 25.8754 19.642 25.8754C19.6422 25.8754 19.6423 25.8754 19.6424 25.8754C19.6425 25.8754 19.6427 25.8754 19.6428 25.8754C19.6429 25.8754 19.643 25.8754 19.6432 25.8754C19.6433 25.8754 19.6434 25.8754 19.6435 25.8754C19.6437 25.8754 19.6438 25.8754 19.6439 25.8754C19.6441 25.8754 19.6442 25.8754 19.6443 25.8754C19.6444 25.8754 19.6446 25.8754 19.6447 25.8754C19.6448 25.8754 19.6449 25.8754 19.6451 25.8754C19.6452 25.8754 19.6453 25.8754 19.6455 25.8754C19.6456 25.8754 19.6457 25.8754 19.6458 25.8754C19.646 25.8754 19.6461 25.8754 19.6462 25.8754C19.6463 25.8754 19.6465 25.8754 19.6466 25.8754C19.6467 25.8754 19.6469 25.8754 19.647 25.8754C19.6471 25.8754 19.6472 25.8754 19.6474 25.8754C19.6475 25.8754 19.6476 25.8754 19.6478 25.8754C19.6479 25.8754 19.648 25.8754 19.6481 25.8754C19.6483 25.8754 19.6484 25.8754 19.6485 25.8754C19.6487 25.8754 19.6488 25.8754 19.6489 25.8754C19.6491 25.8754 19.6492 25.8754 19.6493 25.8754C19.6494 25.8754 19.6496 25.8754 19.6497 25.8754C19.6498 25.8754 19.65 25.8754 19.6501 25.8754C19.6502 25.8754 19.6504 25.8754 19.6505 25.8754C19.6506 25.8754 19.6507 25.8754 19.6509 25.8754C19.651 25.8754 19.6511 25.8754 19.6513 25.8754C19.6514 25.8754 19.6515 25.8754 19.6517 25.8754C19.6518 25.8754 19.6519 25.8754 19.6521 25.8754C19.6522 25.8754 19.6523 25.8754 19.6525 25.8754C19.6526 25.8754 19.6527 25.8754 19.6529 25.8754C19.653 25.8754 19.6531 25.8754 19.6533 25.8754C19.6534 25.8754 19.6535 25.8754 19.6536 25.8754C19.6538 25.8754 19.6539 25.8754 19.654 25.8754C19.6542 25.8754 19.6543 25.8754 19.6544 25.8754C19.6546 25.8754 19.6547 25.8754 19.6548 25.8754C19.655 25.8754 19.6551 25.8754 19.6552 25.8754C19.6554 25.8754 19.6555 25.8754 19.6557 25.8754C19.6558 25.8754 19.6559 25.8754 19.6561 25.8754C19.6562 25.8754 19.6563 25.8754 19.6565 25.8754C19.6566 25.8754 19.6567 25.8754 19.6569 25.8754C19.657 25.8754 19.6571 25.8754 19.6573 25.8754C19.6574 25.8754 19.6575 25.8754 19.6577 25.8754C19.6578 25.8754 19.658 25.8754 19.6581 25.8754C19.6582 25.8754 19.6584 25.8754 19.6585 25.8754C19.6586 25.8754 19.6588 25.8754 19.6589 25.8754C19.659 25.8754 19.6592 25.8754 19.6593 25.8754C19.6595 25.8754 19.6596 25.8754 19.6597 25.8754C19.6599 25.8754 19.66 25.8754 19.6601 25.8754C19.6603 25.8754 19.6604 25.8754 19.6606 25.8754C19.6607 25.8754 19.6608 25.8754 19.661 25.8754C19.6611 25.8754 19.6612 25.8754 19.6614 25.8754C19.6615 25.8754 19.6617 25.8754 19.6618 25.8754C19.6619 25.8754 19.6621 25.8754 19.6622 25.8754C19.6624 25.8754 19.6625 25.8754 19.6626 25.8754C19.6628 25.8754 19.6629 25.8754 19.6631 25.8754C19.6632 25.8754 19.6633 25.8754 19.6635 25.8754C19.6636 25.8754 19.6638 25.8754 19.6639 25.8754C19.664 25.8754 19.6642 25.8754 19.6643 25.8754C19.6645 25.8754 19.6646 25.8754 19.6648 25.8754C19.6649 25.8754 19.665 25.8754 19.6652 25.8754C19.6653 25.8754 19.6655 25.8754 19.6656 25.8754C19.6658 25.8754 19.6659 25.8754 19.666 25.8754C19.6662 25.8754 19.6663 25.8754 19.6665 25.8754C19.6666 25.8754 19.6668 25.8754 19.6669 25.8754C19.667 25.8754 19.6672 25.8754 19.6673 25.8754C19.6675 25.8754 19.6676 25.8754 19.6678 25.8754C19.6679 25.8754 19.6681 25.8754 19.6682 25.8754C19.6683 25.8754 19.6685 25.8754 19.6686 25.8754C19.6688 25.8754 19.6689 25.8754 19.6691 25.8754C19.6692 25.8754 19.6694 25.8754 19.6695 25.8754C19.6697 25.8754 19.6698 25.8754 19.6699 25.8754C19.6701 25.8754 19.6702 25.8754 19.6704 25.8754C19.6705 25.8754 19.6707 25.8754 19.6708 25.8754C19.671 25.8754 19.6711 25.8754 19.6713 25.8754C19.6714 25.8754 19.6716 25.8754 19.6717 25.8754C19.6719 25.8754 19.672 25.8754 19.6722 25.8754C19.6723 25.8754 19.6725 25.8754 19.6726 25.8754C19.6728 25.8754 19.6729 25.8754 19.6731 25.8754C19.6732 25.8754 19.6734 25.8754 19.6735 25.8754C19.6737 25.8754 19.6738 25.8754 19.674 25.8754C19.6741 25.8754 19.6743 25.8754 19.6744 25.8754C19.6746 25.8754 19.6747 25.8754 19.6749 25.8754C19.675 25.8754 19.6752 25.8754 19.6753 25.8754C19.6755 25.8754 19.6756 25.8754 19.6758 25.8754C19.6759 25.8754 19.6761 25.8754 19.6762 25.8754C19.6764 25.8754 19.6765 25.8754 19.6767 25.8754C19.6769 25.8754 19.677 25.8754 19.6772 25.8754C19.6773 25.8754 19.6775 25.8754 19.6776 25.8754C19.6778 25.8754 19.6779 25.8754 19.6781 25.8754C19.6782 25.8754 19.6784 25.8754 19.6786 25.8754C19.6787 25.8754 19.6789 25.8754 19.679 25.8754C19.6792 25.8754 19.6793 25.8754 19.6795 25.8754C19.6796 25.8754 19.6798 25.8754 19.68 25.8754C19.6801 25.8754 19.6803 25.8754 19.6804 25.8754C19.6806 25.8754 19.6807 25.8754 19.6809 25.8754C19.6811 25.8754 19.6812 25.8754 19.6814 25.8754C19.6815 25.8754 19.6817 25.8754 19.6819 25.8754C19.682 25.8754 19.6822 25.8754 19.6823 25.8754C19.6825 25.8754 19.6827 25.8754 19.6828 25.8754C19.683 25.8754 19.6831 25.8754 19.6833 25.8754C19.6835 25.8754 19.6836 25.8754 19.6838 25.8754C19.6839 25.8754 19.6841 25.8754 19.6843 25.8754C19.6844 25.8754 19.6846 25.8754 19.6847 25.8754C19.6849 25.8754 19.6851 25.8754 19.6852 25.8754C19.6854 25.8754 19.6856 25.8754 19.6857 25.8754C19.6859 25.8754 19.6861 25.8754 19.6862 25.8754C19.6864 25.8754 19.6865 25.8754 19.6867 25.8754C19.6869 25.8754 19.687 25.8754 19.6872 25.8754C19.6874 25.8754 19.6875 25.8754 19.6877 25.8754C19.6879 25.8754 19.688 25.8754 19.6882 25.8754C19.6884 25.8754 19.6885 25.8754 19.6887 25.8754C19.6889 25.8754 19.689 25.8754 19.6892 25.8754C19.6894 25.8754 19.6895 25.8754 19.6897 25.8754C19.6899 25.8754 19.69 25.8754 19.6902 25.8754C19.6904 25.8754 19.6905 25.8754 19.6907 25.8754C19.6909 25.8754 19.6911 25.8754 19.6912 25.8754C19.6914 25.8754 19.6916 25.8754 19.6917 25.8754C19.6919 25.8754 19.6921 25.8754 19.6922 25.8754C19.6924 25.8754 19.6926 25.8754 19.6928 25.8754C19.6929 25.8754 19.6931 25.8754 19.6933 25.8754C19.6934 25.8754 19.6936 25.8754 19.6938 25.8754C19.694 25.8754 19.6941 25.8754 19.6943 25.8754C19.6945 25.8754 19.6947 25.8754 19.6948 25.8754C19.695 25.8754 19.6952 25.8754 19.6954 25.8754C19.6955 25.8754 19.6957 25.8754 19.6959 25.8754C19.6961 25.8754 19.6962 25.8754 19.6964 25.8754C19.6966 25.8754 19.6968 25.8754 19.6969 25.8754C19.6971 25.8754 19.6973 25.8754 19.6975 25.8754C19.6976 25.8754 19.6978 25.8754 19.698 25.8754C19.6982 25.8754 19.6984 25.8754 19.6985 25.8754C19.6987 25.8754 19.6989 25.8754 19.6991 25.8754C19.6992 25.8754 19.6994 25.8754 19.6996 25.8754C19.6998 25.8754 19.7 25.8754 19.7001 25.8754C19.7003 25.8754 19.7005 25.8754 19.7007 25.8754C19.7009 25.8754 19.7011 25.8754 19.7012 25.8754C19.7014 25.8754 19.7016 25.8754 19.7018 25.8754C19.702 25.8754 19.7021 25.8754 19.7023 25.8754C19.7025 25.8754 19.7027 25.8754 19.7029 25.8754C19.7031 25.8754 19.7032 25.8754 19.7034 25.8754C19.7036 25.8754 19.7038 25.8754 19.704 25.8754C19.7042 25.8754 19.7044 25.8754 19.7045 25.8754C19.7047 25.8754 19.7049 25.8754 19.7051 25.8754C19.7053 25.8754 19.7055 25.8754 19.7057 25.8754C19.7058 25.8754 19.706 25.8754 19.7062 25.8754C19.7064 25.8754 19.7066 25.8754 19.7068 25.8754C19.707 25.8754 19.7072 25.8754 19.7074 25.8754C19.7075 25.8754 19.7077 25.8754 19.7079 25.8754C19.7081 25.8754 19.7083 25.8754 19.7085 25.8754C19.7087 25.8754 19.7089 25.8754 19.7091 25.8754C19.7093 25.8754 19.7095 25.8754 19.7096 25.8754C19.7098 25.8754 19.71 25.8754 19.7102 25.8754C19.7104 25.8754 19.7106 25.8754 19.7108 25.8754C19.711 25.8754 19.7112 25.8754 19.7114 25.8754C19.7116 25.8754 19.7118 25.8754 19.712 25.8754C19.7122 25.8754 19.7124 25.8754 19.7126 25.8754C19.7127 25.8754 19.7129 25.8754 19.7131 25.8754C19.7133 25.8754 19.7135 25.8754 19.7137 25.8754C19.7139 25.8754 19.7141 25.8754 19.7143 25.8754C19.7145 25.8754 19.7147 25.8754 19.7149 25.8754C19.7151 25.8754 19.7153 25.8754 19.7155 25.8754C19.7157 25.8754 19.7159 25.8754 19.7161 25.8754C19.7163 25.8754 19.7165 25.8754 19.7167 25.8754C19.7169 25.8754 19.7171 25.8754 19.7173 25.8754C19.7175 25.8754 19.7177 25.8754 19.7179 25.8754C19.7181 25.8754 19.7183 25.8754 19.7185 25.8754C19.7187 25.8754 19.7189 25.8754 19.7192 25.8754C19.7194 25.8754 19.7196 25.8754 19.7198 25.8754C19.72 25.8754 19.7202 25.8754 19.7204 25.8754C19.7206 25.8754 19.7208 25.8754 19.721 25.8754C19.7212 25.8754 19.7214 25.8754 19.7216 25.8754C19.7218 25.8754 19.722 25.8754 19.7222 25.8754C19.7225 25.8754 19.7227 25.8754 19.7229 25.8754C19.7231 25.8754 19.7233 25.8754 19.7235 25.8754C19.7237 25.8754 19.7239 25.8754 19.7241 25.8754C19.7243 25.8754 19.7246 25.8754 19.7248 25.8754C19.725 25.8754 19.7252 25.8754 19.7254 25.8754C19.7256 25.8754 19.7258 25.8754 19.726 25.8754C19.7262 25.8754 19.7265 25.8754 19.7267 25.8754C19.7269 25.8754 19.7271 25.8754 19.7273 25.8754C19.7275 25.8754 19.7277 25.8754 19.728 25.8754C19.7282 25.8754 19.7284 25.8754 19.7286 25.8754C19.7288 25.8754 19.729 25.8754 19.7293 25.8754C19.7295 25.8754 19.7297 25.8754 19.7299 25.8754C19.7301 25.8754 19.7304 25.8754 19.7306 25.8754C19.7308 25.8754 19.731 25.8754 19.7312 25.8754C19.7314 25.8754 19.7317 25.8754 19.7319 25.8754C19.7321 25.8754 19.7323 25.8754 19.7326 25.8754C19.7328 25.8754 19.733 25.8754 19.7332 25.8754C19.7334 25.8754 19.7337 25.8754 19.7339 25.8754C19.7341 25.8754 19.7343 25.8754 19.7346 25.8754C19.7348 25.8754 19.735 25.8754 19.7352 25.8754C19.7355 25.8754 19.7357 25.8754 19.7359 25.8754C19.7361 25.8754 19.7364 25.8754 19.7366 25.8754C19.7368 25.8754 19.737 25.8754 19.7373 25.8754C19.7375 25.8754 19.7377 25.8754 19.738 25.8754C19.7382 25.8754 19.7384 25.8754 19.7386 25.8754C19.7389 25.8754 19.7391 25.8754 19.7393 25.8754C19.7396 25.8754 19.7398 25.8754 19.74 25.8754C19.7403 25.8754 19.7405 25.8754 19.7407 25.8754C19.7409 25.8754 19.7412 25.8754 19.7414 25.8754C19.7416 25.8754 19.7419 25.8754 19.7421 25.8754C19.7423 25.8754 19.7426 25.8754 19.7428 25.8754C19.7431 25.8754 19.7433 25.8754 19.7435 25.8754C19.7438 25.8754 19.744 25.8754 19.7442 25.8754C19.7445 25.8754 19.7447 25.8754 19.7449 25.8754C19.7452 25.8754 19.7454 25.8754 19.7457 25.8754C19.7459 25.8754 19.7461 25.8754 19.7464 25.8754C19.7466 25.8754 19.7469 25.8754 19.7471 25.8754C19.7473 25.8754 19.7476 25.8754 19.7478 25.8754C19.7481 25.8754 19.7483 25.8754 19.7485 25.8754C19.7488 25.8754 19.749 25.8754 19.7493 25.8754C19.7495 25.8754 19.7498 25.8754 19.75 25.8754V21.8754C19.7498 21.8754 19.7495 21.8754 19.7493 21.8754C19.749 21.8754 19.7488 21.8754 19.7485 21.8754C19.7483 21.8754 19.7481 21.8754 19.7478 21.8754C19.7476 21.8754 19.7473 21.8754 19.7471 21.8754C19.7469 21.8754 19.7466 21.8754 19.7464 21.8754C19.7461 21.8754 19.7459 21.8754 19.7457 21.8754C19.7454 21.8754 19.7452 21.8754 19.7449 21.8754C19.7447 21.8754 19.7445 21.8754 19.7442 21.8754C19.744 21.8754 19.7438 21.8754 19.7435 21.8754C19.7433 21.8754 19.7431 21.8754 19.7428 21.8754C19.7426 21.8754 19.7423 21.8754 19.7421 21.8754C19.7419 21.8754 19.7416 21.8754 19.7414 21.8754C19.7412 21.8754 19.7409 21.8754 19.7407 21.8754C19.7405 21.8754 19.7403 21.8754 19.74 21.8754C19.7398 21.8754 19.7396 21.8754 19.7393 21.8754C19.7391 21.8754 19.7389 21.8754 19.7386 21.8754C19.7384 21.8754 19.7382 21.8754 19.738 21.8754C19.7377 21.8754 19.7375 21.8754 19.7373 21.8754C19.737 21.8754 19.7368 21.8754 19.7366 21.8754C19.7364 21.8754 19.7361 21.8754 19.7359 21.8754C19.7357 21.8754 19.7355 21.8754 19.7352 21.8754C19.735 21.8754 19.7348 21.8754 19.7346 21.8754C19.7343 21.8754 19.7341 21.8754 19.7339 21.8754C19.7337 21.8754 19.7334 21.8754 19.7332 21.8754C19.733 21.8754 19.7328 21.8754 19.7326 21.8754C19.7323 21.8754 19.7321 21.8754 19.7319 21.8754C19.7317 21.8754 19.7314 21.8754 19.7312 21.8754C19.731 21.8754 19.7308 21.8754 19.7306 21.8754C19.7304 21.8754 19.7301 21.8754 19.7299 21.8754C19.7297 21.8754 19.7295 21.8754 19.7293 21.8754C19.729 21.8754 19.7288 21.8754 19.7286 21.8754C19.7284 21.8754 19.7282 21.8754 19.728 21.8754C19.7277 21.8754 19.7275 21.8754 19.7273 21.8754C19.7271 21.8754 19.7269 21.8754 19.7267 21.8754C19.7265 21.8754 19.7262 21.8754 19.726 21.8754C19.7258 21.8754 19.7256 21.8754 19.7254 21.8754C19.7252 21.8754 19.725 21.8754 19.7248 21.8754C19.7246 21.8754 19.7243 21.8754 19.7241 21.8754C19.7239 21.8754 19.7237 21.8754 19.7235 21.8754C19.7233 21.8754 19.7231 21.8754 19.7229 21.8754C19.7227 21.8754 19.7225 21.8754 19.7222 21.8754C19.722 21.8754 19.7218 21.8754 19.7216 21.8754C19.7214 21.8754 19.7212 21.8754 19.721 21.8754C19.7208 21.8754 19.7206 21.8754 19.7204 21.8754C19.7202 21.8754 19.72 21.8754 19.7198 21.8754C19.7196 21.8754 19.7194 21.8754 19.7192 21.8754C19.7189 21.8754 19.7187 21.8754 19.7185 21.8754C19.7183 21.8754 19.7181 21.8754 19.7179 21.8754C19.7177 21.8754 19.7175 21.8754 19.7173 21.8754C19.7171 21.8754 19.7169 21.8754 19.7167 21.8754C19.7165 21.8754 19.7163 21.8754 19.7161 21.8754C19.7159 21.8754 19.7157 21.8754 19.7155 21.8754C19.7153 21.8754 19.7151 21.8754 19.7149 21.8754C19.7147 21.8754 19.7145 21.8754 19.7143 21.8754C19.7141 21.8754 19.7139 21.8754 19.7137 21.8754C19.7135 21.8754 19.7133 21.8754 19.7131 21.8754C19.7129 21.8754 19.7127 21.8754 19.7126 21.8754C19.7124 21.8754 19.7122 21.8754 19.712 21.8754C19.7118 21.8754 19.7116 21.8754 19.7114 21.8754C19.7112 21.8754 19.711 21.8754 19.7108 21.8754C19.7106 21.8754 19.7104 21.8754 19.7102 21.8754C19.71 21.8754 19.7098 21.8754 19.7096 21.8754C19.7095 21.8754 19.7093 21.8754 19.7091 21.8754C19.7089 21.8754 19.7087 21.8754 19.7085 21.8754C19.7083 21.8754 19.7081 21.8754 19.7079 21.8754C19.7077 21.8754 19.7075 21.8754 19.7074 21.8754C19.7072 21.8754 19.707 21.8754 19.7068 21.8754C19.7066 21.8754 19.7064 21.8754 19.7062 21.8754C19.706 21.8754 19.7058 21.8754 19.7057 21.8754C19.7055 21.8754 19.7053 21.8754 19.7051 21.8754C19.7049 21.8754 19.7047 21.8754 19.7045 21.8754C19.7044 21.8754 19.7042 21.8754 19.704 21.8754C19.7038 21.8754 19.7036 21.8754 19.7034 21.8754C19.7032 21.8754 19.7031 21.8754 19.7029 21.8754C19.7027 21.8754 19.7025 21.8754 19.7023 21.8754C19.7021 21.8754 19.702 21.8754 19.7018 21.8754C19.7016 21.8754 19.7014 21.8754 19.7012 21.8754C19.7011 21.8754 19.7009 21.8754 19.7007 21.8754C19.7005 21.8754 19.7003 21.8754 19.7001 21.8754C19.7 21.8754 19.6998 21.8754 19.6996 21.8754C19.6994 21.8754 19.6992 21.8754 19.6991 21.8754C19.6989 21.8754 19.6987 21.8754 19.6985 21.8754C19.6984 21.8754 19.6982 21.8754 19.698 21.8754C19.6978 21.8754 19.6976 21.8754 19.6975 21.8754C19.6973 21.8754 19.6971 21.8754 19.6969 21.8754C19.6968 21.8754 19.6966 21.8754 19.6964 21.8754C19.6962 21.8754 19.6961 21.8754 19.6959 21.8754C19.6957 21.8754 19.6955 21.8754 19.6954 21.8754C19.6952 21.8754 19.695 21.8754 19.6948 21.8754C19.6947 21.8754 19.6945 21.8754 19.6943 21.8754C19.6941 21.8754 19.694 21.8754 19.6938 21.8754C19.6936 21.8754 19.6934 21.8754 19.6933 21.8754C19.6931 21.8754 19.6929 21.8754 19.6928 21.8754C19.6926 21.8754 19.6924 21.8754 19.6922 21.8754C19.6921 21.8754 19.6919 21.8754 19.6917 21.8754C19.6916 21.8754 19.6914 21.8754 19.6912 21.8754C19.6911 21.8754 19.6909 21.8754 19.6907 21.8754C19.6905 21.8754 19.6904 21.8754 19.6902 21.8754C19.69 21.8754 19.6899 21.8754 19.6897 21.8754C19.6895 21.8754 19.6894 21.8754 19.6892 21.8754C19.689 21.8754 19.6889 21.8754 19.6887 21.8754C19.6885 21.8754 19.6884 21.8754 19.6882 21.8754C19.688 21.8754 19.6879 21.8754 19.6877 21.8754C19.6875 21.8754 19.6874 21.8754 19.6872 21.8754C19.687 21.8754 19.6869 21.8754 19.6867 21.8754C19.6865 21.8754 19.6864 21.8754 19.6862 21.8754C19.6861 21.8754 19.6859 21.8754 19.6857 21.8754C19.6856 21.8754 19.6854 21.8754 19.6852 21.8754C19.6851 21.8754 19.6849 21.8754 19.6847 21.8754C19.6846 21.8754 19.6844 21.8754 19.6843 21.8754C19.6841 21.8754 19.6839 21.8754 19.6838 21.8754C19.6836 21.8754 19.6835 21.8754 19.6833 21.8754C19.6831 21.8754 19.683 21.8754 19.6828 21.8754C19.6827 21.8754 19.6825 21.8754 19.6823 21.8754C19.6822 21.8754 19.682 21.8754 19.6819 21.8754C19.6817 21.8754 19.6815 21.8754 19.6814 21.8754C19.6812 21.8754 19.6811 21.8754 19.6809 21.8754C19.6807 21.8754 19.6806 21.8754 19.6804 21.8754C19.6803 21.8754 19.6801 21.8754 19.68 21.8754C19.6798 21.8754 19.6796 21.8754 19.6795 21.8754C19.6793 21.8754 19.6792 21.8754 19.679 21.8754C19.6789 21.8754 19.6787 21.8754 19.6786 21.8754C19.6784 21.8754 19.6782 21.8754 19.6781 21.8754C19.6779 21.8754 19.6778 21.8754 19.6776 21.8754C19.6775 21.8754 19.6773 21.8754 19.6772 21.8754C19.677 21.8754 19.6769 21.8754 19.6767 21.8754C19.6765 21.8754 19.6764 21.8754 19.6762 21.8754C19.6761 21.8754 19.6759 21.8754 19.6758 21.8754C19.6756 21.8754 19.6755 21.8754 19.6753 21.8754C19.6752 21.8754 19.675 21.8754 19.6749 21.8754C19.6747 21.8754 19.6746 21.8754 19.6744 21.8754C19.6743 21.8754 19.6741 21.8754 19.674 21.8754C19.6738 21.8754 19.6737 21.8754 19.6735 21.8754C19.6734 21.8754 19.6732 21.8754 19.6731 21.8754C19.6729 21.8754 19.6728 21.8754 19.6726 21.8754C19.6725 21.8754 19.6723 21.8754 19.6722 21.8754C19.672 21.8754 19.6719 21.8754 19.6717 21.8754C19.6716 21.8754 19.6714 21.8754 19.6713 21.8754C19.6711 21.8754 19.671 21.8754 19.6708 21.8754C19.6707 21.8754 19.6705 21.8754 19.6704 21.8754C19.6702 21.8754 19.6701 21.8754 19.6699 21.8754C19.6698 21.8754 19.6697 21.8754 19.6695 21.8754C19.6694 21.8754 19.6692 21.8754 19.6691 21.8754C19.6689 21.8754 19.6688 21.8754 19.6686 21.8754C19.6685 21.8754 19.6683 21.8754 19.6682 21.8754C19.6681 21.8754 19.6679 21.8754 19.6678 21.8754C19.6676 21.8754 19.6675 21.8754 19.6673 21.8754C19.6672 21.8754 19.667 21.8754 19.6669 21.8754C19.6668 21.8754 19.6666 21.8754 19.6665 21.8754C19.6663 21.8754 19.6662 21.8754 19.666 21.8754C19.6659 21.8754 19.6658 21.8754 19.6656 21.8754C19.6655 21.8754 19.6653 21.8754 19.6652 21.8754C19.665 21.8754 19.6649 21.8754 19.6648 21.8754C19.6646 21.8754 19.6645 21.8754 19.6643 21.8754C19.6642 21.8754 19.664 21.8754 19.6639 21.8754C19.6638 21.8754 19.6636 21.8754 19.6635 21.8754C19.6633 21.8754 19.6632 21.8754 19.6631 21.8754C19.6629 21.8754 19.6628 21.8754 19.6626 21.8754C19.6625 21.8754 19.6624 21.8754 19.6622 21.8754C19.6621 21.8754 19.6619 21.8754 19.6618 21.8754C19.6617 21.8754 19.6615 21.8754 19.6614 21.8754C19.6612 21.8754 19.6611 21.8754 19.661 21.8754C19.6608 21.8754 19.6607 21.8754 19.6606 21.8754C19.6604 21.8754 19.6603 21.8754 19.6601 21.8754C19.66 21.8754 19.6599 21.8754 19.6597 21.8754C19.6596 21.8754 19.6595 21.8754 19.6593 21.8754C19.6592 21.8754 19.659 21.8754 19.6589 21.8754C19.6588 21.8754 19.6586 21.8754 19.6585 21.8754C19.6584 21.8754 19.6582 21.8754 19.6581 21.8754C19.658 21.8754 19.6578 21.8754 19.6577 21.8754C19.6575 21.8754 19.6574 21.8754 19.6573 21.8754C19.6571 21.8754 19.657 21.8754 19.6569 21.8754C19.6567 21.8754 19.6566 21.8754 19.6565 21.8754C19.6563 21.8754 19.6562 21.8754 19.6561 21.8754C19.6559 21.8754 19.6558 21.8754 19.6557 21.8754C19.6555 21.8754 19.6554 21.8754 19.6552 21.8754C19.6551 21.8754 19.655 21.8754 19.6548 21.8754C19.6547 21.8754 19.6546 21.8754 19.6544 21.8754C19.6543 21.8754 19.6542 21.8754 19.654 21.8754C19.6539 21.8754 19.6538 21.8754 19.6536 21.8754C19.6535 21.8754 19.6534 21.8754 19.6533 21.8754C19.6531 21.8754 19.653 21.8754 19.6529 21.8754C19.6527 21.8754 19.6526 21.8754 19.6525 21.8754C19.6523 21.8754 19.6522 21.8754 19.6521 21.8754C19.6519 21.8754 19.6518 21.8754 19.6517 21.8754C19.6515 21.8754 19.6514 21.8754 19.6513 21.8754C19.6511 21.8754 19.651 21.8754 19.6509 21.8754C19.6507 21.8754 19.6506 21.8754 19.6505 21.8754C19.6504 21.8754 19.6502 21.8754 19.6501 21.8754C19.65 21.8754 19.6498 21.8754 19.6497 21.8754C19.6496 21.8754 19.6494 21.8754 19.6493 21.8754C19.6492 21.8754 19.6491 21.8754 19.6489 21.8754C19.6488 21.8754 19.6487 21.8754 19.6485 21.8754C19.6484 21.8754 19.6483 21.8754 19.6481 21.8754C19.648 21.8754 19.6479 21.8754 19.6478 21.8754C19.6476 21.8754 19.6475 21.8754 19.6474 21.8754C19.6472 21.8754 19.6471 21.8754 19.647 21.8754C19.6469 21.8754 19.6467 21.8754 19.6466 21.8754C19.6465 21.8754 19.6463 21.8754 19.6462 21.8754C19.6461 21.8754 19.646 21.8754 19.6458 21.8754C19.6457 21.8754 19.6456 21.8754 19.6455 21.8754C19.6453 21.8754 19.6452 21.8754 19.6451 21.8754C19.6449 21.8754 19.6448 21.8754 19.6447 21.8754C19.6446 21.8754 19.6444 21.8754 19.6443 21.8754C19.6442 21.8754 19.6441 21.8754 19.6439 21.8754C19.6438 21.8754 19.6437 21.8754 19.6435 21.8754C19.6434 21.8754 19.6433 21.8754 19.6432 21.8754C19.643 21.8754 19.6429 21.8754 19.6428 21.8754C19.6427 21.8754 19.6425 21.8754 19.6424 21.8754C19.6423 21.8754 19.6422 21.8754 19.642 21.8754C19.6419 21.8754 19.6418 21.8754 19.6416 21.8754C19.6415 21.8754 19.6414 21.8754 19.6413 21.8754C19.6411 21.8754 19.641 21.8754 19.6409 21.8754C19.6408 21.8754 19.6406 21.8754 19.6405 21.8754C19.6404 21.8754 19.6403 21.8754 19.6401 21.8754C19.64 21.8754 19.6399 21.8754 19.6398 21.8754C19.6396 21.8754 19.6395 21.8754 19.6394 21.8754C19.6393 21.8754 19.6391 21.8754 19.639 21.8754C19.6389 21.8754 19.6388 21.8754 19.6386 21.8754C19.6385 21.8754 19.6384 21.8754 19.6383 21.8754C19.6381 21.8754 19.638 21.8754 19.6379 21.8754C19.6378 21.8754 19.6376 21.8754 19.6375 21.8754C19.6374 21.8754 19.6373 21.8754 19.6372 21.8754C19.637 21.8754 19.6369 21.8754 19.6368 21.8754C19.6367 21.8754 19.6365 21.8754 19.6364 21.8754C19.6363 21.8754 19.6362 21.8754 19.636 21.8754C19.6359 21.8754 19.6358 21.8754 19.6357 21.8754C19.6355 21.8754 19.6354 21.8754 19.6353 21.8754C19.6352 21.8754 19.635 21.8754 19.6349 21.8754C19.6348 21.8754 19.6347 21.8754 19.6346 21.8754C19.6344 21.8754 19.6343 21.8754 19.6342 21.8754C19.6341 21.8754 19.6339 21.8754 19.6338 21.8754C19.6337 21.8754 19.6336 21.8754 19.6334 21.8754C19.6333 21.8754 19.6332 21.8754 19.6331 21.8754C19.633 21.8754 19.6328 21.8754 19.6327 21.8754C19.6326 21.8754 19.6325 21.8754 19.6323 21.8754C19.6322 21.8754 19.6321 21.8754 19.632 21.8754C19.6318 21.8754 19.6317 21.8754 19.6316 21.8754C19.6315 21.8754 19.6314 21.8754 19.6312 21.8754C19.6311 21.8754 19.631 21.8754 19.6309 21.8754C19.6307 21.8754 19.6306 21.8754 19.6305 21.8754C19.6304 21.8754 19.6303 21.8754 19.6301 21.8754C19.63 21.8754 19.6299 21.8754 19.6298 21.8754C19.6296 21.8754 19.6295 21.8754 19.6294 21.8754C19.6293 21.8754 19.6292 21.8754 19.629 21.8754C19.6289 21.8754 19.6288 21.8754 19.6287 21.8754C19.6285 21.8754 19.6284 21.8754 19.6283 21.8754C19.6282 21.8754 19.6281 21.8754 19.6279 21.8754C19.6278 21.8754 19.6277 21.8754 19.6276 21.8754C19.6274 21.8754 19.6273 21.8754 19.6272 21.8754C19.6271 21.8754 19.627 21.8754 19.6268 21.8754C19.6267 21.8754 19.6266 21.8754 19.6265 21.8754C19.6263 21.8754 19.6262 21.8754 19.6261 21.8754C19.626 21.8754 19.6259 21.8754 19.6257 21.8754C19.6256 21.8754 19.6255 21.8754 19.6254 21.8754C19.6252 21.8754 19.6251 21.8754 19.625 21.8754C19.6249 21.8754 19.6248 21.8754 19.6246 21.8754C19.6245 21.8754 19.6244 21.8754 19.6243 21.8754C19.6241 21.8754 19.624 21.8754 19.6239 21.8754C19.6238 21.8754 19.6237 21.8754 19.6235 21.8754C19.6234 21.8754 19.6233 21.8754 19.6232 21.8754C19.623 21.8754 19.6229 21.8754 19.6228 21.8754C19.6227 21.8754 19.6226 21.8754 19.6224 21.8754C19.6223 21.8754 19.6222 21.8754 19.6221 21.8754C19.6219 21.8754 19.6218 21.8754 19.6217 21.8754C19.6216 21.8754 19.6215 21.8754 19.6213 21.8754C19.6212 21.8754 19.6211 21.8754 19.621 21.8754C19.6208 21.8754 19.6207 21.8754 19.6206 21.8754C19.6205 21.8754 19.6204 21.8754 19.6202 21.8754C19.6201 21.8754 19.62 21.8754 19.6199 21.8754C19.6197 21.8754 19.6196 21.8754 19.6195 21.8754C19.6194 21.8754 19.6193 21.8754 19.6191 21.8754C19.619 21.8754 19.6189 21.8754 19.6188 21.8754C19.6186 21.8754 19.6185 21.8754 19.6184 21.8754C19.6183 21.8754 19.6182 21.8754 19.618 21.8754C19.6179 21.8754 19.6178 21.8754 19.6177 21.8754C19.6175 21.8754 19.6174 21.8754 19.6173 21.8754C19.6172 21.8754 19.617 21.8754 19.6169 21.8754C19.6168 21.8754 19.6167 21.8754 19.6166 21.8754C19.6164 21.8754 19.6163 21.8754 19.6162 21.8754C19.6161 21.8754 19.6159 21.8754 19.6158 21.8754C19.6157 21.8754 19.6156 21.8754 19.6154 21.8754C19.6153 21.8754 19.6152 21.8754 19.6151 21.8754C19.615 21.8754 19.6148 21.8754 19.6147 21.8754C19.6146 21.8754 19.6145 21.8754 19.6143 21.8754C19.6142 21.8754 19.6141 21.8754 19.614 21.8754C19.6138 21.8754 19.6137 21.8754 19.6136 21.8754C19.6135 21.8754 19.6133 21.8754 19.6132 21.8754C19.6131 21.8754 19.613 21.8754 19.6128 21.8754C19.6127 21.8754 19.6126 21.8754 19.6125 21.8754C19.6124 21.8754 19.6122 21.8754 19.6121 21.8754C19.612 21.8754 19.6119 21.8754 19.6117 21.8754C19.6116 21.8754 19.6115 21.8754 19.6114 21.8754C19.6112 21.8754 19.6111 21.8754 19.611 21.8754C19.6109 21.8754 19.6107 21.8754 19.6106 21.8754C19.6105 21.8754 19.6104 21.8754 19.6102 21.8754C19.6101 21.8754 19.61 21.8754 19.6099 21.8754C19.6097 21.8754 19.6096 21.8754 19.6095 21.8754C19.6094 21.8754 19.6092 21.8754 19.6091 21.8754C19.609 21.8754 19.6089 21.8754 19.6087 21.8754C19.6086 21.8754 19.6085 21.8754 19.6084 21.8754C19.6082 21.8754 19.6081 21.8754 19.608 21.8754C19.6078 21.8754 19.6077 21.8754 19.6076 21.8754C19.6075 21.8754 19.6073 21.8754 19.6072 21.8754C19.6071 21.8754 19.607 21.8754 19.6068 21.8754C19.6067 21.8754 19.6066 21.8754 19.6065 21.8754C19.6063 21.8754 19.6062 21.8754 19.6061 21.8754C19.6059 21.8754 19.6058 21.8754 19.6057 21.8754C19.6056 21.8754 19.6054 21.8754 19.6053 21.8754C19.6052 21.8754 19.6051 21.8754 19.6049 21.8754C19.6048 21.8754 19.6047 21.8754 19.6045 21.8754C19.6044 21.8754 19.6043 21.8754 19.6042 21.8754C19.604 21.8754 19.6039 21.8754 19.6038 21.8754C19.6037 21.8754 19.6035 21.8754 19.6034 21.8754C19.6033 21.8754 19.6031 21.8754 19.603 21.8754C19.6029 21.8754 19.6028 21.8754 19.6026 21.8754C19.6025 21.8754 19.6024 21.8754 19.6022 21.8754C19.6021 21.8754 19.602 21.8754 19.6019 21.8754C19.6017 21.8754 19.6016 21.8754 19.6015 21.8754C19.6013 21.8754 19.6012 21.8754 19.6011 21.8754C19.6009 21.8754 19.6008 21.8754 19.6007 21.8754C19.6006 21.8754 19.6004 21.8754 19.6003 21.8754C19.6002 21.8754 19.6 21.8754 19.5999 21.8754C19.5998 21.8754 19.5996 21.8754 19.5995 21.8754C19.5994 21.8754 19.5993 21.8754 19.5991 21.8754C19.599 21.8754 19.5989 21.8754 19.5987 21.8754C19.5986 21.8754 19.5985 21.8754 19.5983 21.8754C19.5982 21.8754 19.5981 21.8754 19.5979 21.8754C19.5978 21.8754 19.5977 21.8754 19.5975 21.8754C19.5974 21.8754 19.5973 21.8754 19.5971 21.8754C19.597 21.8754 19.5969 21.8754 19.5967 21.8754C19.5966 21.8754 19.5965 21.8754 19.5964 21.8754C19.5962 21.8754 19.5961 21.8754 19.596 21.8754C19.5958 21.8754 19.5957 21.8754 19.5956 21.8754C19.5954 21.8754 19.5953 21.8754 19.5952 21.8754C19.595 21.8754 19.5949 21.8754 19.5947 21.8754C19.5946 21.8754 19.5945 21.8754 19.5943 21.8754C19.5942 21.8754 19.5941 21.8754 19.5939 21.8754C19.5938 21.8754 19.5937 21.8754 19.5935 21.8754C19.5934 21.8754 19.5933 21.8754 19.5931 21.8754C19.593 21.8754 19.5929 21.8754 19.5927 21.8754C19.5926 21.8754 19.5925 21.8754 19.5923 21.8754C19.5922 21.8754 19.592 21.8754 19.5919 21.8754C19.5918 21.8754 19.5916 21.8754 19.5915 21.8754C19.5914 21.8754 19.5912 21.8754 19.5911 21.8754C19.591 21.8754 19.5908 21.8754 19.5907 21.8754C19.5905 21.8754 19.5904 21.8754 19.5903 21.8754C19.5901 21.8754 19.59 21.8754 19.5899 21.8754C19.5897 21.8754 19.5896 21.8754 19.5894 21.8754C19.5893 21.8754 19.5892 21.8754 19.589 21.8754C19.5889 21.8754 19.5888 21.8754 19.5886 21.8754C19.5885 21.8754 19.5883 21.8754 19.5882 21.8754C19.5881 21.8754 19.5879 21.8754 19.5878 21.8754C19.5876 21.8754 19.5875 21.8754 19.5874 21.8754C19.5872 21.8754 19.5871 21.8754 19.5869 21.8754C19.5868 21.8754 19.5867 21.8754 19.5865 21.8754C19.5864 21.8754 19.5862 21.8754 19.5861 21.8754C19.586 21.8754 19.5858 21.8754 19.5857 21.8754C19.5855 21.8754 19.5854 21.8754 19.5852 21.8754C19.5851 21.8754 19.585 21.8754 19.5848 21.8754C19.5847 21.8754 19.5845 21.8754 19.5844 21.8754C19.5842 21.8754 19.5841 21.8754 19.584 21.8754C19.5838 21.8754 19.5837 21.8754 19.5835 21.8754C19.5834 21.8754 19.5832 21.8754 19.5831 21.8754C19.583 21.8754 19.5828 21.8754 19.5827 21.8754C19.5825 21.8754 19.5824 21.8754 19.5822 21.8754C19.5821 21.8754 19.5819 21.8754 19.5818 21.8754C19.5817 21.8754 19.5815 21.8754 19.5814 21.8754C19.5812 21.8754 19.5811 21.8754 19.5809 21.8754C19.5808 21.8754 19.5806 21.8754 19.5805 21.8754C19.5803 21.8754 19.5802 21.8754 19.5801 21.8754C19.5799 21.8754 19.5798 21.8754 19.5796 21.8754C19.5795 21.8754 19.5793 21.8754 19.5792 21.8754C19.579 21.8754 19.5789 21.8754 19.5787 21.8754C19.5786 21.8754 19.5784 21.8754 19.5783 21.8754C19.5781 21.8754 19.578 21.8754 19.5778 21.8754C19.5777 21.8754 19.5775 21.8754 19.5774 21.8754C19.5772 21.8754 19.5771 21.8754 19.5769 21.8754C19.5768 21.8754 19.5766 21.8754 19.5765 21.8754C19.5763 21.8754 19.5762 21.8754 19.576 21.8754C19.5759 21.8754 19.5757 21.8754 19.5756 21.8754C19.5754 21.8754 19.5753 21.8754 19.5751 21.8754C19.575 21.8754 19.5748 21.8754 19.5747 21.8754C19.5745 21.8754 19.5744 21.8754 19.5742 21.8754C19.5741 21.8754 19.5739 21.8754 19.5738 21.8754C19.5736 21.8754 19.5735 21.8754 19.5733 21.8754C19.5731 21.8754 19.573 21.8754 19.5728 21.8754C19.5727 21.8754 19.5725 21.8754 19.5724 21.8754C19.5722 21.8754 19.5721 21.8754 19.5719 21.8754C19.5718 21.8754 19.5716 21.8754 19.5714 21.8754C19.5713 21.8754 19.5711 21.8754 19.571 21.8754C19.5708 21.8754 19.5707 21.8754 19.5705 21.8754C19.5704 21.8754 19.5702 21.8754 19.57 21.8754C19.5699 21.8754 19.5697 21.8754 19.5696 21.8754C19.5694 21.8754 19.5693 21.8754 19.5691 21.8754C19.5689 21.8754 19.5688 21.8754 19.5686 21.8754C19.5685 21.8754 19.5683 21.8754 19.5681 21.8754C19.568 21.8754 19.5678 21.8754 19.5677 21.8754C19.5675 21.8754 19.5673 21.8754 19.5672 21.8754C19.567 21.8754 19.5669 21.8754 19.5667 21.8754C19.5665 21.8754 19.5664 21.8754 19.5662 21.8754C19.5661 21.8754 19.5659 21.8754 19.5657 21.8754C19.5656 21.8754 19.5654 21.8754 19.5653 21.8754C19.5651 21.8754 19.5649 21.8754 19.5648 21.8754C19.5646 21.8754 19.5644 21.8754 19.5643 21.8754C19.5641 21.8754 19.5639 21.8754 19.5638 21.8754C19.5636 21.8754 19.5635 21.8754 19.5633 21.8754C19.5631 21.8754 19.563 21.8754 19.5628 21.8754C19.5626 21.8754 19.5625 21.8754 19.5623 21.8754C19.5621 21.8754 19.562 21.8754 19.5618 21.8754C19.5616 21.8754 19.5615 21.8754 19.5613 21.8754C19.5611 21.8754 19.561 21.8754 19.5608 21.8754C19.5606 21.8754 19.5605 21.8754 19.5603 21.8754C19.5601 21.8754 19.56 21.8754 19.5598 21.8754C19.5596 21.8754 19.5595 21.8754 19.5593 21.8754C19.5591 21.8754 19.5589 21.8754 19.5588 21.8754C19.5586 21.8754 19.5584 21.8754 19.5583 21.8754C19.5581 21.8754 19.5579 21.8754 19.5578 21.8754C19.5576 21.8754 19.5574 21.8754 19.5572 21.8754C19.5571 21.8754 19.5569 21.8754 19.5567 21.8754C19.5566 21.8754 19.5564 21.8754 19.5562 21.8754C19.556 21.8754 19.5559 21.8754 19.5557 21.8754C19.5555 21.8754 19.5553 21.8754 19.5552 21.8754C19.555 21.8754 19.5548 21.8754 19.5546 21.8754C19.5545 21.8754 19.5543 21.8754 19.5541 21.8754C19.5539 21.8754 19.5538 21.8754 19.5536 21.8754C19.5534 21.8754 19.5532 21.8754 19.5531 21.8754C19.5529 21.8754 19.5527 21.8754 19.5525 21.8754C19.5524 21.8754 19.5522 21.8754 19.552 21.8754C19.5518 21.8754 19.5516 21.8754 19.5515 21.8754C19.5513 21.8754 19.5511 21.8754 19.5509 21.8754C19.5508 21.8754 19.5506 21.8754 19.5504 21.8754C19.5502 21.8754 19.55 21.8754 19.5499 21.8754C19.5497 21.8754 19.5495 21.8754 19.5493 21.8754C19.5491 21.8754 19.5489 21.8754 19.5488 21.8754C19.5486 21.8754 19.5484 21.8754 19.5482 21.8754C19.548 21.8754 19.5479 21.8754 19.5477 21.8754C19.5475 21.8754 19.5473 21.8754 19.5471 21.8754C19.5469 21.8754 19.5468 21.8754 19.5466 21.8754C19.5464 21.8754 19.5462 21.8754 19.546 21.8754C19.5458 21.8754 19.5456 21.8754 19.5455 21.8754C19.5453 21.8754 19.5451 21.8754 19.5449 21.8754C19.5447 21.8754 19.5445 21.8754 19.5443 21.8754C19.5442 21.8754 19.544 21.8754 19.5438 21.8754C19.5436 21.8754 19.5434 21.8754 19.5432 21.8754C19.543 21.8754 19.5428 21.8754 19.5426 21.8754C19.5425 21.8754 19.5423 21.8754 19.5421 21.8754C19.5419 21.8754 19.5417 21.8754 19.5415 21.8754C19.5413 21.8754 19.5411 21.8754 19.5409 21.8754C19.5407 21.8754 19.5405 21.8754 19.5404 21.8754C19.5402 21.8754 19.54 21.8754 19.5398 21.8754C19.5396 21.8754 19.5394 21.8754 19.5392 21.8754C19.539 21.8754 19.5388 21.8754 19.5386 21.8754C19.5384 21.8754 19.5382 21.8754 19.538 21.8754C19.5378 21.8754 19.5376 21.8754 19.5374 21.8754C19.5372 21.8754 19.5371 21.8754 19.5369 21.8754C19.5367 21.8754 19.5365 21.8754 19.5363 21.8754C19.5361 21.8754 19.5359 21.8754 19.5357 21.8754C19.5355 21.8754 19.5353 21.8754 19.5351 21.8754C19.5349 21.8754 19.5347 21.8754 19.5345 21.8754C19.5343 21.8754 19.5341 21.8754 19.5339 21.8754C19.5337 21.8754 19.5335 21.8754 19.5333 21.8754C19.5331 21.8754 19.5329 21.8754 19.5327 21.8754C19.5325 21.8754 19.5323 21.8754 19.5321 21.8754C19.5319 21.8754 19.5317 21.8754 19.5315 21.8754C19.5313 21.8754 19.5311 21.8754 19.5308 21.8754C19.5306 21.8754 19.5304 21.8754 19.5302 21.8754C19.53 21.8754 19.5298 21.8754 19.5296 21.8754C19.5294 21.8754 19.5292 21.8754 19.529 21.8754C19.5288 21.8754 19.5286 21.8754 19.5284 21.8754C19.5282 21.8754 19.528 21.8754 19.5278 21.8754C19.5275 21.8754 19.5273 21.8754 19.5271 21.8754C19.5269 21.8754 19.5267 21.8754 19.5265 21.8754C19.5263 21.8754 19.5261 21.8754 19.5259 21.8754C19.5257 21.8754 19.5254 21.8754 19.5252 21.8754C19.525 21.8754 19.5248 21.8754 19.5246 21.8754C19.5244 21.8754 19.5242 21.8754 19.524 21.8754C19.5237 21.8754 19.5235 21.8754 19.5233 21.8754C19.5231 21.8754 19.5229 21.8754 19.5227 21.8754C19.5225 21.8754 19.5222 21.8754 19.522 21.8754C19.5218 21.8754 19.5216 21.8754 19.5214 21.8754C19.5212 21.8754 19.521 21.8754 19.5207 21.8754C19.5205 21.8754 19.5203 21.8754 19.5201 21.8754C19.5199 21.8754 19.5196 21.8754 19.5194 21.8754C19.5192 21.8754 19.519 21.8754 19.5188 21.8754C19.5185 21.8754 19.5183 21.8754 19.5181 21.8754C19.5179 21.8754 19.5177 21.8754 19.5174 21.8754C19.5172 21.8754 19.517 21.8754 19.5168 21.8754C19.5166 21.8754 19.5163 21.8754 19.5161 21.8754C19.5159 21.8754 19.5157 21.8754 19.5154 21.8754C19.5152 21.8754 19.515 21.8754 19.5148 21.8754C19.5145 21.8754 19.5143 21.8754 19.5141 21.8754C19.5139 21.8754 19.5136 21.8754 19.5134 21.8754C19.5132 21.8754 19.513 21.8754 19.5127 21.8754C19.5125 21.8754 19.5123 21.8754 19.512 21.8754C19.5118 21.8754 19.5116 21.8754 19.5114 21.8754C19.5111 21.8754 19.5109 21.8754 19.5107 21.8754C19.5104 21.8754 19.5102 21.8754 19.51 21.8754C19.5097 21.8754 19.5095 21.8754 19.5093 21.8754C19.5091 21.8754 19.5088 21.8754 19.5086 21.8754C19.5084 21.8754 19.5081 21.8754 19.5079 21.8754C19.5077 21.8754 19.5074 21.8754 19.5072 21.8754C19.5069 21.8754 19.5067 21.8754 19.5065 21.8754C19.5062 21.8754 19.506 21.8754 19.5058 21.8754C19.5055 21.8754 19.5053 21.8754 19.5051 21.8754C19.5048 21.8754 19.5046 21.8754 19.5043 21.8754C19.5041 21.8754 19.5039 21.8754 19.5036 21.8754C19.5034 21.8754 19.5031 21.8754 19.5029 21.8754C19.5027 21.8754 19.5024 21.8754 19.5022 21.8754C19.5019 21.8754 19.5017 21.8754 19.5015 21.8754C19.5012 21.8754 19.501 21.8754 19.5007 21.8754C19.5005 21.8754 19.5002 21.8754 19.5 21.8754V25.8754ZM20.1422 25.8366C21.7872 25.5076 23.0316 23.8998 22.7228 22.0466L18.7772 22.7042C18.7184 22.3511 18.9628 21.9932 19.3578 21.9143L20.1422 25.8366ZM22.7199 22.0298L21.4699 14.9048L17.5301 15.596L18.7801 22.721L22.7199 22.0298ZM20.8966 16.682L26.0216 11.682L23.2284 8.81885L18.1034 13.8188L20.8966 16.682ZM25.5194 12.0393C26.5408 11.5286 27 10.522 27 9.62541H23C23 9.22878 23.2092 8.72226 23.7306 8.46156L25.5194 12.0393Z" fill="url(#paint0_linear_347_4958)" mask="url(#path-1-inside-1_347_4958)"/>
<defs>
<linearGradient id="paint0_linear_347_4958" x1="12.5096" y1="0.0742187" x2="12.5096" y2="23.9266" gradientUnits="userSpaceOnUse">
<stop stop-color="#3FBEB0"/>
<stop offset="1" stop-color="#B2F49E"/>
</linearGradient>
</defs>
</svg>
