<svg width="21" height="20" viewBox="0 0 21 20" fill="none" xmlns="http://www.w3.org/2000/svg">
<path d="M10.5025 0H10.4975C4.98375 0 0.5 4.485 0.5 10C0.5 12.1875 1.205 14.215 2.40375 15.8612L1.1575 19.5763L5.00125 18.3475C6.5825 19.395 8.46875 20 10.5025 20C16.0162 20 20.5 15.5138 20.5 10C20.5 4.48625 16.0162 0 10.5025 0Z" fill="#4CAF50"/>
<path d="M16.3207 14.1217C16.0795 14.803 15.122 15.368 14.3582 15.533C13.8357 15.6442 13.1532 15.733 10.8557 14.7805C7.91695 13.563 6.02445 10.5767 5.87695 10.383C5.7357 10.1892 4.68945 8.80172 4.68945 7.36672C4.68945 5.93172 5.4182 5.23297 5.71195 4.93297C5.9532 4.68672 6.35195 4.57422 6.73445 4.57422C6.8582 4.57422 6.96945 4.58047 7.06945 4.58547C7.3632 4.59797 7.5107 4.61547 7.70445 5.07922C7.9457 5.66047 8.5332 7.09547 8.6032 7.24297C8.67445 7.39047 8.7457 7.59047 8.6457 7.78422C8.55195 7.98422 8.46945 8.07297 8.32195 8.24297C8.17445 8.41297 8.03445 8.54297 7.88695 8.72547C7.75195 8.88422 7.59945 9.05422 7.76945 9.34797C7.93945 9.63547 8.52695 10.5942 9.39195 11.3642C10.5082 12.358 11.4132 12.6755 11.737 12.8105C11.9782 12.9105 12.2657 12.8867 12.442 12.6992C12.6657 12.458 12.942 12.058 13.2232 11.6642C13.4232 11.3817 13.6757 11.3467 13.9407 11.4467C14.2107 11.5405 15.6395 12.2467 15.9332 12.393C16.227 12.5405 16.4207 12.6105 16.492 12.7342C16.562 12.858 16.562 13.4392 16.3207 14.1217Z" fill="#FAFAFA"/>
</svg>
