<svg width="14" height="14" viewBox="0 0 14 14" fill="none" xmlns="http://www.w3.org/2000/svg">
<path d="M8.05794 6.99916L12.7829 2.28166C12.9242 2.14043 13.0035 1.94889 13.0035 1.74916C13.0035 1.54944 12.9242 1.35789 12.7829 1.21666C12.6417 1.07543 12.4502 0.996094 12.2504 0.996094C12.0507 0.996094 11.8592 1.07543 11.7179 1.21666L7.00044 5.94166L2.28294 1.21666C2.14171 1.07543 1.95017 0.996094 1.75044 0.996094C1.55072 0.996094 1.35917 1.07543 1.21794 1.21666C1.07671 1.35789 0.997374 1.54944 0.997374 1.74916C0.997374 1.94889 1.07671 2.14043 1.21794 2.28166L5.94294 6.99916L1.21794 11.7167C1.14765 11.7864 1.09185 11.8693 1.05377 11.9607C1.0157 12.0521 0.996094 12.1502 0.996094 12.2492C0.996094 12.3482 1.0157 12.4462 1.05377 12.5376C1.09185 12.629 1.14765 12.7119 1.21794 12.7817C1.28766 12.852 1.37062 12.9078 1.46201 12.9458C1.5534 12.9839 1.65143 13.0035 1.75044 13.0035C1.84945 13.0035 1.94748 12.9839 2.03888 12.9458C2.13027 12.9078 2.21322 12.852 2.28294 12.7817L7.00044 8.05666L11.7179 12.7817C11.7877 12.852 11.8706 12.9078 11.962 12.9458C12.0534 12.9839 12.1514 13.0035 12.2504 13.0035C12.3495 13.0035 12.4475 12.9839 12.5389 12.9458C12.6303 12.9078 12.7132 12.852 12.7829 12.7817C12.8532 12.7119 12.909 12.629 12.9471 12.5376C12.9852 12.4462 13.0048 12.3482 13.0048 12.2492C13.0048 12.1502 12.9852 12.0521 12.9471 11.9607C12.909 11.8693 12.8532 11.7864 12.7829 11.7167L8.05794 6.99916Z" fill="white"/>
</svg>
